<svg xmlns="http://www.w3.org/2000/svg" width="793.701" height="1122.52" viewBox="0 0 210 297"><title>City Border (A4 size)</title><title>City Border  --  by Arvin61r58</title><path d="M7.379 7.318H202.62v282.363H7.379z" style="opacity:1;fill:none;fill-opacity:1;stroke:#000;stroke-width:2.11666656;stroke-linecap:round;stroke-linejoin:round;stroke-miterlimit:4;stroke-dasharray:none;stroke-opacity:1"/><path d="M115.55 246.675c.57-.549 1.074-1.175 1.734-1.622.04 5.836-.007 11.673.023 17.51.61.023 1.221.031 1.833.032.017 1.757-.085 2.132.144 2.536.66 1.26.137 1.58.365 4.45q1.166.014 2.336.006c.024-1.705-.018-3.412.02-5.118l.877-.053c.02-.294.035-.587.057-.878q.826-.051 1.653 0 .008-.59.02-1.178.593-.014 1.188-.033.027-.369.056-.733c.514-.001 1.051-.093 1.55.07.597.364.95 1.011 1.518 1.413.249.137.548.125.824.172.012 2.11-.018 4.219.014 6.329q.976.012 1.951-.005c.082-1.732-.005-3.465.057-5.197l.869-.04q.049-.335.1-.667.765-.013 1.532.001.019.398.042.8l.822.068c.013.928-.011 1.856.018 2.783 1.071-.968 1.066-.192.97-6.193.48-.004.963-.044 1.442.017 1.05.116.643 1.557.721 3.002-.03.704.953.897.92 1.61.03 1.272-.01 2.546.008 3.82q.952.012 1.908 0c.031-3.225.003-6.45.013-9.676a78 78 0 0 1 2.379-.003c.023 1.429-.04 2.86.035 4.288q.555.015 1.114.034c.015.582-.033 1.167.014 1.75.017.392.799 1.12 1.094 1.272.645.256 1.43-.285 1.432-.972.027-.635-.015-1.27.002-1.904a67 67 0 0 1 2.064 0c.005.488-.063.988.063 1.467.304.551.922.844 1.237 1.388.126.331.108.695.135 1.043.912.021 1.824.018 2.738.012.019-1.2-.026-2.402.024-3.601.731-.014 1.461-.01 2.193-.018.007-.842-.004-1.683.008-2.524l.78-.034c.703-.83.715-.807 1.646-1.117.024-.15.044-.302.089-.448.158-.103.342-.157.517-.23.066-1.04.217-2.074.458-3.088-.308-.298-.643-.593-.806-1-.33-.776-.112-1.758.544-2.297.384-.28.824-.47 1.25-.678.236-.136.497.011.738.059a18.2 18.2 0 0 1 2.38-2.799c-.005-.548-.017-1.141.31-1.612.386-.633 1.133-.931 1.845-.982.4-.015.733.251 1.072.428 1.225-.56 2.51-1.013 3.85-1.194 1.07-.129.566-.383 2.422-1.198 2.442 1.131.831.92 2.726 1.327 1.07.203 2.095.59 3.08 1.05.507.278.925-.249 1.367-.418 1.64.736 1.958 1.245 2.035 2.393-.007.657.499.463 2.405 3.234q.397-.212.801-.42c.405.264.855.444 1.274.683.832.516 1.106 1.697.664 2.556-.224.48-.685.77-1.108 1.053q.097.475.2.954l.571.002q.015-.387.036-.772l1.023-.001q.024.292.054.586l.66.055c.087 3.854-.166 2.783.239 4.442.103.434-.02.874-.117 1.298q.863.01 1.729-.003c.059-.625-.201-1.402.298-1.899.446-.507 1.187-.29 1.777-.318.036 2.404-.05 5.415.064 6.477.2-.019.406-.036.61-.053.013-.383-.023-.78.099-1.15.44-.895 1.17-.817 1.536-.862.044-6.088-.265-5.242.739-6.266.59-.532.394-.475 2.012-.456.07 3.72-.035 9.025.073 10.145q1.163.008 2.327-.003c.013-1.739-.01-3.476.011-5.215q1.072-.005 2.144 0v26.37c-23.74.01-14.89.008-194.182.008v-21.138q.341-.019.683-.035c.026-1.985-.002-3.968.015-5.952l.646-.045.128-.6q.608-.005 1.214 0c.03 2.207-.036 4.416.033 6.624q.547-.01 1.096-.024c.057-1.735.01-3.473.034-5.208a216 216 0 0 0 1.608-.007c.017-1.74-.012-3.48.013-5.218l.798-.043.053-.728a25 25 0 0 1 1.719.01l.056.646.504.057c.034 2.736-.018 5.472.027 8.207.917.037 1.835.006 2.753.027 0 .754-.009 1.507.03 2.26q1.018.024 2.037.013c.022-1.864-.027-3.728.03-5.591q.167-.069.337-.132l.044-.755q.359-.058.715-.112l.045-.785q.817-.037 1.634.015.036.427.068.855l.44.09c.007 2.136-.015 4.272.008 6.409q1.718.005 3.437 0l.031-.89.811-.073c.03-1.83.01-3.66.007-5.491.535-.011 1.072.03 1.605-.022.473-.056.68-.599 1.122-.72.522-.076 1.053-.027 1.579-.032.021 1.1-.006 2.202.015 3.302q.681.006 1.362.003c.02-.966.002-1.932.01-2.898q.61-.018 1.222-.033l.04-.61a16 16 0 0 1 1.943-.007l.071.989.791.054.026 1.19.828.032c.021.99 0 1.977.012 2.966l.728.037c.02.734.016 1.468.053 2.203a49 49 0 0 0 1.804-.01q.02-.679.014-1.355l.848-.027c.017-4.072.003-8.144.006-12.215q.375-.04.752-.076.017-.493.036-.982a102 102 0 0 1 3.436-.006c.015 4.094 0 8.189.008 12.283.867.02 1.735.017 2.603.004.016-.939-.022-1.878.031-2.816q.907.004 1.815-.015c.018-1.76.004-3.52 0-5.28-.038-.61.44-1.274 1.083-1.27 2.37-.059 1.935-.004 2.642.674l.963.035c.017 1.416-.015 2.833.016 4.25q.252.046.507.097c.045.927.02 1.856.028 2.783q.87.017 1.74-.017c.033-1.094.016-13.408.01-14.443.044-1.591-.313-.665 2.415-3.517.277-.297.593-.555.927-.785.048.628.043 1.257.008 1.885.8.062 1.606.034 2.409.034.044 3.423.003 6.848.02 10.273q.69.05 1.38.041c.072-3.6-.305-3.51.727-4.364.305-.261.57-.16 2.947-.174.047 3.764-.004 7.53.025 11.295q.835.008 1.675.008c.022 1.225-.016 2.45.028 3.673.835.029 1.67.02 2.506.016q.014-.895.01-1.79c.25-.02.504-.026.75-.088.308-.124.512-.423.827-.537.363-.085.74-.05 1.11-.056.028-6.531-.381-5.656 1.317-7.22.23-.23.423-.287 3.115-.199l.057 1.095c.703.04 1.409.043 2.114.037.044 2.873-.033 5.748.038 8.62 2.05-1.83 1.623-1.408 1.677-3.537l.855-.04c.104-1.42-.004-2.84.019-4.26l.704-.034.038-.738a43 43 0 0 1 1.66-.008l.05.747q.534.018 1.07.041c.026.319.02.646.117.956.217.425.678.654.923 1.06.14.4.035.85.185 1.25.206.35.533.605.807.9.836.797.386.587 3.089.595l.014-1.466.74-.04q.003-.323.012-.642.656-.003 1.314.015c-.006.702-.009 1.405.002 2.108a37 37 0 0 0 1.69-.01c.015-1.475-.01-2.95.01-4.426q.364-.017.73-.03.024-.418.05-.833a83 83 0 0 1 1.657-.004c.013.277.022.555.036.833l.66.046c.015 2.502-.016 5.005.016 7.507 1.74-1.467.888-1.449 2.513-1.679q.016-.69.027-1.381.45-.013.904-.022c.013-2.216-.01-4.432.01-6.647q.293-.037.588-.072.022-.75.034-1.499.221-.072.447-.141.017-.836.025-1.671.778-.057 1.559-.039.044.825.05 1.652.219.038.441.079.009.846.003 1.69l.678.09q.016.653.027 1.305l.619.05c.113 1.074.054 4.74.053 4.816.017 1.24-.044.635 2.127 2.955.66.644.5.572 1.564.597a218 218 0 0 0-.002-4.056c.016-1.036.508-1.095.478-1.717-.066-15.813-.082-14.881.286-15.203.623-.623 1.258-1.235 1.877-1.863m51.539 2.284c.249.574.098 1.23.34 1.797.738 1.255 1.456 2.522 2.197 3.778a8 8 0 0 1 2.828-.81q.011-1.764 0-3.528c-1.135-.405-1.653-.812-1.748-2.316a13.6 13.6 0 0 0-3.617 1.079m-51.056-.976c-.212.178-.19.732.185.69.166-.004.397.046.497-.13.028-.186.072-.433-.094-.566a1.3 1.3 0 0 0-.588.006m58.785-.035c-.127 1.213-.394 1.8-1.747 2.246-.012 1.172-.007 2.344-.004 3.517a8 8 0 0 1 2.904.701c3.402-5.81 1.243-2.609 2.244-5.36a13 13 0 0 0-3.397-1.104m-58.781 1.547c-.177.15-.183.516-.003.666.217.028.522.104.68-.095a1.3 1.3 0 0 0 .003-.48c-.173-.18-.46-.124-.68-.091m-56.414.742c-.183.101-.17.4.004.507.257.06.176.058 3.501.05.188-.022.42.018.567-.128.337-.688-.875-.442-2.587-.482-.494.012-.999-.057-1.485.053m56.42.88c-.203.11-.117.387-.105.574.17.174.453.127.67.087.206-.107.116-.39.113-.576-.183-.165-.459-.131-.678-.085m49.337.884c-.663.062-1.25-.308-1.72-.731a13.7 13.7 0 0 0-2.087 2.497c.649.425 4.718 2.761 5.475 3.18.535-.83 1.252-1.524 2.048-2.103-.703-1.226-1.415-2.446-2.12-3.668-.438.418-.961.82-1.596.825m16.219-.597c-1.077 1.088-2.154 1.048-3.244.102-.614 1.067-1.24 2.128-1.846 3.2a8.3 8.3 0 0 1 2.205 2.116c1.65-.954 3.307-1.898 4.946-2.87a13.3 13.3 0 0 0-2.061-2.548m-121.975.445c-.17.111-.184.407 0 .509.286.073.585.054.878.057 2.47-.046 2.953.09 3.2-.134.241-.693-.702-.433-2.29-.478-.596.018-1.2-.061-1.788.046m56.418.884c-.228.171-.196.745.182.695.164-.005.387.038.492-.127a1.1 1.1 0 0 0-.003-.47c-.15-.205-.459-.124-.67-.098m-56.422.84c-.198.112-.166.491.073.523.401.05 3.442.049 3.839 0 .262-.039.27-.514-.006-.543-.703-.085-1.413-.01-2.12-.03-.594.02-1.2-.068-1.786.05m110.218 1.305c.842 1.524 1.735 3.02 2.607 4.527.024-1.757.012-3.515.006-5.273a7.7 7.7 0 0 0-2.613.746m3.231-.758c-.006 1.763-.016 3.525.006 5.288.9-1.535 1.783-3.078 2.677-4.617-.83-.427-1.758-.617-2.683-.671m-57.025.135c-.204.119-.182.516-.01.659.218.03.52.103.682-.095.024-.188.07-.433-.092-.572a1.2 1.2 0 0 0-.58.008m46.14.59c.263 1.425-.458 2.574-2.254 2.653a14.3 14.3 0 0 0-.416 2.896q3.23.01 6.46.001c.056-1.013.34-1.99.742-2.917-1.505-.887-3.026-1.748-4.531-2.633m16.841 2.511c.477.947.759 1.98.823 3.04q2.876.007 5.754 0a14.4 14.4 0 0 0-.416-2.894c-1.526-.352-2.082-1.3-1.85-2.657-1.432.845-2.884 1.657-4.311 2.511m-4.353.512c-.35.618-.738 1.217-1.042 1.86.509-.235 4.487-2.56 4.71-2.691a6.7 6.7 0 0 0-2.044-1.963c-.553.924-1.083 1.862-1.624 2.794m-115.05-2.577c-.2.111-.173.49.07.524.398.05 3.438.051 3.841-.001.266-.035.258-.503.001-.541-.738-.083-1.485-.01-2.226-.032-.561.018-1.133-.061-1.686.05m107.815 1.834c.277.266 3.878 2.318 4.452 2.606-.26-.557-2.46-4.309-2.582-4.513-.738.504-1.41 1.134-1.87 1.907m-99.724-1.427c-.243.257-.148.702-.088 1.023.266.238.704.156 1.027.087.246-.259.15-.708.09-1.03-.275-.228-.704-.156-1.029-.08m-22.886.04c-.182.432-.077-.295-.112 13.565.003.207.024.42.11.613.44.046.303.419.3-12.653-.012-1.043.103-1.554-.298-1.525m.8-.006c-.14.397-.092-.461-.1 13.665.024.193-.005.596.303.5.161-.348.097.452.107-13.64.003-.22-.012-.536-.31-.525m.782 0c-.073.523-.169 13.683.03 14.165.437.147.304-.144.304-7.174-.019-2.305.039-4.612-.03-6.917zm69.624.035c-.175.132-.12.386-.098.575.142.17.397.124.594.107.283-.031.217-.381.178-.577-.134-.222-.461-.12-.674-.105m-56.413 1.245c-.2.112-.169.5.08.524.355.05 3.379.043 3.742.015.234.029.372-.277.24-.452-.127-.24-.642-.092-3.082-.143-.327.002-.661-.024-.98.057m56.41.369c-.2.194-.193.737.186.697.267-.011.637.124.498-.601-.171-.186-.464-.12-.684-.096m-48.321.237c-.233.267-.147.703-.084 1.027.269.234.705.155 1.029.085.242-.261.15-.707.088-1.029-.267-.237-.71-.15-1.033-.083m108.232 1.513c-.662.395-1.35.744-1.983 1.185.915.129 5.122.082 5.482.079a7.3 7.3 0 0 0-.763-2.83c-.927.496-1.824 1.046-2.736 1.566m-9.558 1.264c.076 0 4.63.038 5.204-.061-.478-.344-4.114-2.422-4.498-2.634a7 7 0 0 0-.706 2.695m-60.675-2.021q-.004.557 0 1.114l.198.001q.003-.556 0-1.112zm.404.007q-.004.552-.001 1.107h.2q.003-.559 0-1.116zm.406-.006q-.005.555 0 1.112l.2.002-.001-1.113zm.404 0q-.004.556 0 1.113h.199q.003-.556 0-1.112zm.407-.005q-.006.558-.002 1.117l.199.001q.004-.555.004-1.108zm-47.709.46c-.19.116-.177.49.069.522.637.086 1.283.014 1.924.033 1.158-.035 2.42.194 2.079-.462-.136-.244-.691-.103-2.994-.148-.359.003-.726-.03-1.078.056m56.407.17c-.195.2-.187.736.193.696.165-.004.388.037.496-.126.03-.155.032-.318-.006-.47-.15-.21-.465-.117-.683-.1m70.386-.017v.806h.81v-.81q-.407 0-.81.004m-133.999.206-.001.595.595.003v-.601q-.298 0-.594.003m.908 0 .002.596q.298-.002.597-.001l-.001-.596zm.911 0v.596h.597l-.001-.597q-.3 0-.596.002m.908 0 .006.598q.295-.003.592-.002v-.598q-.299 0-.598.003m-39.838.318c-.193.155-.123.454-.09.668.141.208.456.12.669.099.196-.155.126-.455.094-.667-.145-.21-.458-.125-.673-.1m52.406.128c-.219.291-.183.758-.04 1.078.288.16.678.105.995.038.22-.282.15-.701.079-1.027-.267-.244-.71-.15-1.034-.09m104.462.354c-.247.41-.15.878-.012 1.305.084.016.252.045.337.059l-.001-.975q.474-.015.954-.021c-.036-.122-.074-.245-.105-.364a1.75 1.75 0 0 0-1.173-.004m-67.069.002q-.005.558.001 1.118l.2-.01q0-.555-.003-1.107zm.404.002q-.004.555 0 1.11l.2.003v-1.116zm.403.002q-.002.554.003 1.11h.198q.003-.56 0-1.116zm.405-.001q-.004.553 0 1.108l.2.005v-1.117zm.405-.002q-.004.556 0 1.115c.05 0 .15-.004.2-.005l-.001-1.11zm.405 0q-.005.554-.001 1.113l.201-.003q.002-.555-.003-1.111zm.404.004q-.004.552-.001 1.107l.2.004q.003-.56 0-1.117c-.05 0-.15.004-.2.006m.405-.002q-.004.554.002 1.112h.198v-1.115zm-55.517.103q-.004.297-.005.597h.6l-.003-.594zm.907.003v.594l.596.002q0-.3.002-.596zm.914-.004q-.005.298-.006.598l.598.001.002-.594q-.297-.004-.594-.005m.908.004q-.004.295-.003.593l.6.002-.003-.596a39 39 0 0 0-.594 0m131.27.096q-.004.404 0 .809h.807q0-.406.003-.808zm-171.11.327c-.203.145-.117.456-.096.671.158.187.453.124.668.094.207-.147.126-.456.102-.67-.153-.202-.458-.127-.673-.094m100.741 0c-.203.118-.192.523-.01.659.217.032.521.105.678-.095a1.2 1.2 0 0 0-.001-.471c-.154-.197-.454-.13-.667-.094m25.664-.024q0 .303.003.609.3-.003.606-.003a41 41 0 0 1-.002-.607zm-82.092.154c-.198.108-.162.492.072.524.67.078 1.348.011 2.021.03.983-.029 2.39.179 1.975-.468-.141-.238-.75-.097-2.988-.143-.36.003-.728-.031-1.08.057m136.505-.053q-.003.403 0 .81.402-.003.809 0v-.809h-.81m-143.71.409v.595q.295 0 .595.004 0-.3.003-.598-.3-.002-.598-.001m.91 0 .002.598h.594v-.6q-.3 0-.597.003m.91 0 .002.595h.598l-.005-.598q-.297-.001-.594.004m.912-.004v.6l.594-.002q.001-.299.005-.593-.3-.004-.6-.005m104.315.006c.127.766 1.369 1.275.646 2.913-.2.403.024.83.135 1.225.263-.257.482-.575.802-.762.527-.097 1.07.039 1.598-.062.3-.151.506-.43.744-.66q.855-.009 1.711-.006.015.54.021 1.082c.54-.294 1.072-.605 1.6-.921-.388-.895-.667-1.838-.736-2.814-2.173-.004-4.348-.013-6.521.005m6.93-.003c.072.898.3 1.78.7 2.59.37-.202 3.887-2.211 4.42-2.583-1.707-.027-3.414-.013-5.12-.007m8.034.01c.076.288.297.485.561.607 1.025.561 2.016 1.181 3.044 1.737q.013-.732.011-1.462.64-.01 1.28-.013l.12-.878c-1.672-.007-3.344-.023-5.016.008m5.417-.012q-.052.437-.098.875.44.017.883.038c.041.973-.046 1.952.035 2.923.179.188 3.311 1.971 3.434 2.038.418-.84.861-1.706 1.007-2.64-.144-.542-.434-1.085-.256-1.66.083-.617.704-.96.81-1.568-1.939-.02-3.878-.007-5.815-.006m-38.128.4v.608h.607v-.605zm44.702 0v.809l.809.002v-.81zm-171.102.124c-.213.136-.121.457-.1.67.186.21.524.07.775.106.004-.228.02-.457-.01-.682-.148-.201-.453-.126-.665-.094m61.998 0c-.187.094-.182.513-.016.665.223.028.513.09.689-.09.01-.189.09-.459-.103-.575a1.2 1.2 0 0 0-.57 0m.955.032c.054.203-.023.486.16.633.184.043.379.043.563-.003.198-.11.12-.385.105-.57-.206-.233-.561-.064-.828-.06m1.2-.08c.003.229-.155.545.064.712.218.028.515.097.676-.097.017-.18.093-.446-.097-.557-.213-.044-.43-.045-.644-.059m-11.749.175c-.236.272-.15.711-.086 1.04.304.204.812.203 1.118-.003.068-.32.117-.7-.045-.997-.29-.157-.672-.114-.987-.04m101.467 1.456.976.023c.023.444.046.888.08 1.332.56-.958 1.155-1.896 1.645-2.892-.93.459-1.808 1.014-2.701 1.537m-116.77-1.295v.594q.3 0 .598.002 0-.299.002-.595-.3-.003-.6 0m.911 0 .002.595h.596l-.001-.598q-.3 0-.597.002m.91 0 .002.595q.296 0 .593.004l.005-.599zm.915-.003q-.003.298-.004.598l.597.001v-.597q-.299-.003-.594-.002m49.752-.003q-.002.301-.001.605l.608.003v-.608zm.912 0q-.003.303-.003.607h.608v-.607zm.908 0v.606l.607.001v-.607zm.91 0v.607h.607v-.607zm.91.002v.605h.615l-.004-.607q-.308 0-.611.002m87.585-.002q-.003.405 0 .81.402-.003.81 0a73 73 0 0 1-.002-.81zm-25.62 3.416c-.255.387-.423.862-.284 1.325.514.334 1.14.42 1.73.55.03-2.297.047-1.217.47-2.17.082-.323.029-2.823.022-2.985-.692 1.065-1.276 2.196-1.939 3.28m3.99-3.198c.005 1.375-.124.848.81 2.489.406.02 1.52-.148 1.707 1.213.436-.442 1.183-.857 1.018-1.588-.189-.206-.044-.098-3.536-2.114m-58.46.105c-.174.157-.172.51 0 .67.22.024.523.099.684-.099a1.3 1.3 0 0 0 0-.478c-.17-.187-.464-.121-.683-.093m-56.403.237c-.14.049-.149.216-.128.341.1.286.46.183.693.218 1.081-.026 2.166.026 3.247-.023.322.05.404-.51.09-.557-.41-.048-3.492-.068-3.902.02m82.084-.053q-.003.301-.002.607.3-.003.609-.001-.003-.306-.002-.607zm-126.515.217c-.003.247-.022.499.034.742.205.074.435.086.645.028.214-.137.12-.457.1-.668-.186-.215-.528-.07-.779-.102m62.106.007c-.218.17-.2.736.175.694.166-.004.389.038.5-.122a1.1 1.1 0 0 0 0-.475c-.154-.2-.46-.125-.675-.097m1.104-.007c-.164.14-.123.386-.092.577.154.197.456.124.673.095.18-.148.096-.43.152-.632-.243-.028-.49-.077-.733-.04m1.125.008c-.229.159-.2.74.173.692.273-.016.625.13.501-.602-.172-.179-.457-.13-.674-.09m99.095.078q-.003.302-.003.606l.609.002a31 31 0 0 1 0-.607zm.909.001q-.002.302.001.608l.605-.001v-.607zm6.877-.001.001.811.81-.002q-.005-.405-.003-.808zm-134.002.107.001.597h.596q0-.3.002-.596zm.911 0v.596h.596l.001-.596zm.912-.003v.6h.593q.002-.299.006-.595-.3-.004-.6-.005m.911.001q-.001.3.001.6.297-.003.595-.003l-.001-.596a39 39 0 0 0-.595 0m101.05.118c-.196.133-.188.523-.004.666.214.026.52.102.673-.098.034-.156.032-.321.004-.477-.168-.181-.457-.13-.672-.09m1.214.004c-.187.107-.198.529-.005.66.217.034.507.093.676-.09a1.2 1.2 0 0 0-.003-.478c-.155-.198-.456-.132-.668-.092m-58.984.176q-.001.507.002 1.013.25-.003.503-.002 0-.507-.002-1.012zm.709 0q-.003.505 0 1.011h.504q0-.507-.002-1.012a28 28 0 0 0-.502.001m.708 0q-.003.505 0 1.012.249-.003.504 0v-1.012zm.709-.002q-.004.507-.002 1.013l.504.001.001-1.01zm95.573.002q-.003.402-.003.807l.811.003.001-.81zm-54.412.201q-.003.303-.002.607l.607.002q0-.304.002-.606zm-126.406.329c-.205.142-.121.454-.095.666.146.205.455.123.668.096.205-.147.123-.457.097-.67-.15-.201-.456-.123-.67-.092m52.404.022c-.178.165-.136.441-.143.662.018.17-.006.437.22.476.294.05.647.09.915-.057.147-.31.15-.731.002-1.038-.294-.161-.676-.113-.994-.043m9.44.011c.052.203-.016.474.155.631.835.179.711-.247.667-.566-.178-.256-.56-.062-.823-.065m1.202-.083c.005.23-.158.55.064.714.215.025.523.101.674-.1.036-.158.032-.321.002-.477-.198-.175-.5-.093-.74-.137m1.174.049c-.189.147-.167.501-.007.667.22.02.521.097.684-.097.034-.16.031-.325.005-.483-.175-.18-.462-.126-.682-.087m46.223-.001c-.196.141-.167.5-.012.667.223.027.51.086.69-.088a1.4 1.4 0 0 0-.003-.49c-.167-.184-.46-.125-.675-.09m1.218.002c-.204.104-.122.383-.106.568.16.198.463.118.683.097.167-.134.12-.383.094-.568-.153-.2-.458-.132-.671-.097m1.114.003c-.189.096-.19.52-.01.662.215.02.53.105.679-.102.023-.185.084-.45-.101-.566a1.16 1.16 0 0 0-.568.006m50.546-.027q-.003.303 0 .608.302-.003.608-.003a31 31 0 0 1 0-.605zm.91 0q-.001.304.003.608h.602q0-.305.003-.608zm-156.959.109-.001.592.598.002-.001-.598q-.3 0-.596.004m.91-.001.001.596.598-.002-.006-.598q-.297 0-.593.004m28.924 0 .003.597q.297-.003.595-.003v-.595zm.912 0q-.003.296-.002.595l.596.002q.002-.299.006-.594zm.912-.001-.002.597h.596v-.596q-.298-.002-.594-.001m.907.002q0 .297.003.596h.594q0-.3-.002-.598-.298 0-.595.002m112.417.44q.356-.013.715-.03a20 20 0 0 1-.008-.423q-.361.216-.706.452m-81.574-.345q-.003.505 0 1.012l.502.001q.002-.507.001-1.012-.254-.002-.503-.001m.709-.001q-.004.505-.001 1.014.25-.003.503 0v-1.012zm.705.002.002 1.011.503.001.001-1.012zm.71-.001a85 85 0 0 0-.002 1.012h.506v-1.011q-.255-.002-.504-.001m.706.003.001 1.01q.252-.003.506-.003 0-.506-.003-1.011-.254-.001-.504.004m.71-.002q-.004.505 0 1.013a28 28 0 0 1 .503-.002v-1.012a28 28 0 0 0-.504 0m96.89.1q-.003.406-.001.812l.81-.002q-.003-.405-.002-.808zm-17.494.125c-.167.156-.175.518.01.664.216.034.507.09.678-.089a1.3 1.3 0 0 0 0-.478c-.158-.205-.469-.123-.688-.097m-12.73.102c-.228.156-.194.742.177.692.163-.006.386.041.493-.12.036-.16.034-.326.006-.485-.17-.18-.459-.128-.675-.087m1.204-.005c-.201.189-.196.733.181.696.164-.008.4.051.499-.125.026-.186.083-.443-.094-.568a1.4 1.4 0 0 0-.586-.003m-97.765.138c-.222.068-.174.492.059.52.395.05 3.443.05 3.838 0 .31-.045.244-.606-.081-.556-.814-.057-1.63 0-2.446-.02-.456.012-.924-.056-1.37.057m82.08-.056q-.002.3-.001.606h.608v-.606zm54.409.102q0 .404.003.81.401-.003.807 0v-.811q-.406-.001-.81.001m-17.495.2q-.002.303 0 .61.301-.004.607-.002a31 31 0 0 1 0-.606zm.909.002q-.002.303.003.606l.603.001q-.002-.305.002-.609-.308 0-.608.002m-164.222.126c-.222.128-.12.458-.104.671.162.19.457.118.674.093.194-.165.118-.465.095-.685-.171-.17-.45-.125-.665-.08m7.26-.018.006.596h.593q0-.3.003-.598zm.914-.003-.002.597.596.002q0-.3.003-.597zm28.925 0-.001.597.595.002q.001-.299.004-.596zm.91.001v.6q.296-.003.595-.002v-.597q-.297-.002-.595 0m.907.004q0 .296.004.593l.596-.001-.004-.599q-.299.001-.596.007m.912-.002.002.596q.297-.002.596-.002 0-.3-.003-.598-.298 0-.595.004m109.97.92a191 191 0 0 0 0 2.27q.84.006 1.683.004c.03-1.083.018-2.167.006-3.25q-.86.461-1.69.977m-66.685-.828q-.004.506-.002 1.012h.506l-.001-1.01a28 28 0 0 0-.503-.002m.707.001q-.003.505 0 1.011l.503.001v-1.013a28 28 0 0 0-.503.001m.708.001q-.003.504-.002 1.008.252 0 .506.004v-1.014q-.253 0-.504.002m.708-.001q-.003.506 0 1.011l.503.001v-1.013a28 28 0 0 0-.503.001m25.206.123c-.208.107-.12.388-.113.576.175.17.458.13.678.086.205-.11.107-.396.106-.583-.185-.155-.454-.127-.671-.079m1.206.002c-.207.13-.125.432-.07.63.228.068.567.145.744-.062a1.1 1.1 0 0 0 0-.472c-.149-.206-.46-.126-.674-.096m1.11-.002c-.22.167-.187.745.185.693.163-.007.391.045.49-.126.036-.156.035-.319.004-.473-.162-.194-.462-.127-.678-.094m39.551.003c-.238.15-.193.744.18.69.163-.006.392.042.489-.132a1.1 1.1 0 0 0 .002-.462c-.15-.203-.46-.133-.67-.096m-88.1.098c-.185.142-.177.517 0 .665.22.031.515.095.681-.094.029-.158.03-.32-.005-.476-.154-.2-.46-.125-.675-.095m1.113 0c-.188.15-.212.647.093.682.194.016.44.056.587-.106.022-.18.055-.386-.046-.544-.197-.092-.428-.077-.634-.033m1.11-.003c-.192.152-.12.44-.065.646.207.057.433.075.645.023.19-.125.112-.394.106-.582-.188-.162-.463-.124-.686-.087m76.907.164q-.004.58.006 1.16.551.003 1.104 0-.236-.681-.474-1.358-.32.098-.636.198m-26.021.045c-.192.119-.102.393-.134.582.03 1.08-.03 2.163.028 3.24-.024.211.315.303.344.068.058-.36.071-3.4-.01-3.864l-.16-.066zm.802-.004c-.179.113-.104.147-.125 3.518 0 .206-.007.568.303.515.178-.286.104-3.677.102-3.753.031-.14-.138-.415-.28-.28m.802-.04c-.155.247-.112.552-.12.83.052 1.976-.16 3.726.362 3.18.076-.428.077-3.51 0-3.935-.06-.02-.182-.057-.242-.076m7.474.02q-.003.301-.002.605l.608.003v-.606zm44.05-.01c-.258.777-.596 1.521-.946 2.26.319.168.615.386.792.71l.171.076c.028-1.015.013-2.03-.017-3.046m.652.01q-.003.405 0 .81h.808q-.001-.404.003-.807zm-30.224.124c-.224.172-.197.743.182.695.161-.006.383.037.491-.123.033-.156.035-.32-.003-.472-.143-.212-.458-.127-.67-.1m1.21 0c-.194.124-.112.395-.102.587.185.149.452.127.67.071.219-.087.117-.383.106-.563-.154-.2-.46-.123-.674-.094m11.53-.005c-.162.164-.104.426-.15.634.237.023.48.089.721.036.205-.111.114-.394.11-.582-.185-.163-.459-.124-.68-.088m8.018 1.142c-.005.475-.07.99.2 1.414.251.408.419.914.862 1.16.05-1.18.02-2.36.017-3.541q-.529.495-1.079.967m1.676-.958q-.003.302-.001.606.3 0 .606.004-.002-.307.003-.608zm.911 0q-.003.303 0 .609l.607-.002a31 31 0 0 1-.002-.606zm-156.963.107.004.597.594-.002.003-.594q-.3-.002-.6 0m.912-.003v.6q.299-.004.596-.003v-.595q-.297-.002-.596-.002m172.635-.005q-.002.405.001.81l.808.002.001-.81zm-180.81.13c-.176.052-.116.33-.132.48-.033.394.451.332.704.278.198-.152.118-.456.09-.667-.146-.205-.451-.126-.661-.09m64.217.3c-.197.126-.185.524-.002.662.217.027.517.1.675-.096a1.2 1.2 0 0 0-.001-.476c-.16-.193-.46-.128-.673-.09m1.108-.006c-.194.15-.123.438-.067.643.238.058.551.125.748-.062.015-.19.08-.45-.1-.578a1.3 1.3 0 0 0-.581-.003m1.118.003c-.195.135-.18.515-.007.667.22.028.514.092.682-.096a1.3 1.3 0 0 0-.001-.48c-.17-.182-.456-.129-.674-.091m43.989.003c-.222.165-.188.737.18.69.166-.005.394.044.497-.127a1.1 1.1 0 0 0-.003-.47c-.147-.206-.46-.123-.674-.093m1.221-.002c-.203.108-.122.385-.107.572.14.175.4.12.598.107.286-.036.195-.4.182-.598-.18-.162-.455-.127-.673-.081m1.114-.001c-.2.113-.124.385-.11.572.143.172.397.124.595.108.289-.033.208-.387.185-.587-.165-.187-.456-.13-.67-.093m13.633.077q-.004.303-.004.608h.61q-.002-.302 0-.603-.304-.004-.606-.005m25.907.025c-.193.14-.18.51-.008.665.217.023.523.104.681-.098a1.15 1.15 0 0 0-.003-.477c-.157-.195-.458-.12-.67-.09m-11.423.203c-.205.104-.126.382-.105.566.154.204.461.12.683.1.165-.14.117-.389.087-.574-.15-.198-.455-.123-.665-.092m1.209 0c-.232.16-.192.744.181.692.273-.018.607.133.498-.605-.178-.174-.46-.13-.68-.086m-134.827.082-.003.594q.3 0 .6.003l-.003-.598zm.91.002-.003.594.601.002-.004-.598q-.297-.001-.595.002m145.449.017c-.231.16-.197.742.179.692.16-.008.388.046.488-.123.039-.155.037-.32.01-.474-.163-.194-.462-.132-.678-.095m9.691-.024q-.002.302.002.609.3-.002.603-.001 0-.304.004-.605zm.913 0q-.004.302-.002.609.3-.002.607-.001a31 31 0 0 1-.003-.608zm6.875 0q-.003.404-.001.81l.811-.001q-.003-.406-.001-.807zm-5.663.203.001.911h.91q-.003-.457 0-.91zm1.286-.05c-.008 1.083-.047 2.168.024 3.25.718-.627 1.237-1.444 1.73-2.25-.582-.339-1.16-.685-1.754-1m-166.733.172c-.19.18-.184.582 0 .768.216.024.51.098.67-.09.045-.193.045-.394.007-.586-.168-.185-.457-.126-.677-.092m64.231.31c-.192.108-.23.65.081.674.194.016.45.064.59-.108.03-.16.03-.325-.005-.482-.16-.19-.453-.125-.666-.085m1.038-.051q-.025.36-.045.72c.258-.024.578.09.792-.096a1.4 1.4 0 0 0-.006-.486c-.193-.184-.5-.093-.741-.138m1.18.05c-.182.083-.12.316-.114.475.031.292.397.212.603.202.29-.03.208-.395.19-.594-.177-.173-.461-.13-.68-.083m44-.004c-.23.155-.197.746.175.692.237-.012.657.124.494-.597-.154-.196-.455-.128-.668-.095m1.206 0c-.216.174-.198.734.179.692.165-.002.389.04.5-.121a1.2 1.2 0 0 0-.003-.478c-.158-.196-.46-.124-.675-.093m1.121.003c-.21.095-.125.379-.105.56.118.196.394.125.588.116.292-.027.206-.382.187-.583-.158-.194-.456-.133-.67-.093m13.631-.026q-.003.302 0 .609.3-.003.606-.001l.001-.605zm25.914.225c-.2.13-.188.52-.01.666.215.024.523.104.675-.098.036-.157.032-.32.005-.476-.169-.184-.455-.131-.67-.093m2.554-.034q0 .336.004.674c1.759.014 1.454.065 1.845-.173-.62-.15-1.24-.306-1.849-.5m-147.603.119.001.597.594.002.002-.6zm.911 0-.002.597h.599v-.594zm132.71.018c-.205.104-.127.381-.11.566.131.185.398.124.597.115.282-.036.199-.397.185-.594-.177-.17-.456-.13-.673-.087m1.21.004c-.21.098-.117.384-.101.566.13.183.391.12.585.107.286 0 .208-.395.188-.587-.163-.186-.458-.13-.671-.086m21.218-.026a41 41 0 0 0 0 .607h.607a31 31 0 0 1 0-.607zm.91.002q-.003.3 0 .603.3 0 .606.003-.002-.306.001-.61-.306 0-.607.004m6.878.302q-.003.402-.001.806l.81.002v-.809q-.406-.001-.81.001m-44.702.301.001.608h.606a41 41 0 0 1 .001-.605zm39.04 0q-.003.455 0 .912h.908q-.001-.455.004-.91-.459-.003-.912-.002m-55.008.124c-.216.177-.187.741.186.694.165-.006.39.04.495-.126a1.3 1.3 0 0 0 0-.48c-.173-.178-.462-.123-.681-.088m1.219-.001c-.19.141-.18.518-.002.668.216.024.522.102.676-.1.033-.158.032-.321.001-.476-.168-.186-.458-.126-.675-.092m1.114.008c-.179.11-.2.539.004.655.217.044.497.085.674-.085.033-.184.02-.374-.033-.55-.209-.062-.438-.09-.645-.02m-105.499.179v.595q.297 0 .595.003l.004-.596zm.91-.002.001.599h.594l.005-.594zm155.14-.003q-.003.301 0 .607h.607a41 41 0 0 1-.001-.608zm.909.003q-.002.301.002.605l.607-.001a25 25 0 0 1-.002-.608q-.307 0-.607.004m-23.347.126c-.195.126-.18.522.002.66.216.03.515.1.674-.096.025-.188.075-.438-.093-.573a1.2 1.2 0 0 0-.583.01m1.224-.002c-.216.118-.175.502-.02.663.222.027.51.088.688-.09.027-.16.032-.324-.006-.479-.14-.21-.453-.13-.662-.094m29.002.479q-.003.404-.002.81h.81q-.003-.405 0-.81zm-60.667.226c-.19.136-.182.519 0 .665.219.034.5.084.679-.087.017-.193.072-.44-.094-.582a1.3 1.3 0 0 0-.585.004m1.22.011c-.212.088-.116.38-.108.56.165.189.459.122.68.092.217-.164.055-.482.062-.712-.213.015-.427.015-.634.06m.994-.02c.033.217-.085.513.11.671.304.091.808.064.702-.385.024-.449-.537-.259-.812-.286m-105.385.094v.593q.298 0 .595.005v-.603q-.297 0-.595.005m.913-.003-.002.598h.596V269q-.298-.002-.594-.001" style="stroke-width:.26458332"/></svg>