<svg xmlns="http://www.w3.org/2000/svg" width="816" height="11in" viewBox="0 0 765 990"><title>Border 38</title><g transform="matrix(1.0021 0 0 1.0016 27.865 -87.604)"><title>Border 38  --  by Arvin61r58</title><path d="m153.03 117.36-.012-.012.012-.013q-3.723-3.706-7.448-7.41h-15.826l-7.448 7.41.012.013-.012.012c4.001 4.546 8.687 8.682 12.634 12.501h5.455l12.634-12.501m40.717 0-.012-.012.012-.013q-3.723-3.706-7.448-7.41h-15.825l-7.448 7.41.012.013-.012.012c4 4.546 8.686 8.682 12.634 12.501h5.455l12.634-12.501m40.717 0-.012-.012.012-.013q-3.723-3.706-7.448-7.41h-15.826l-7.448 7.41.012.013-.012.012c4 4.546 8.687 8.682 12.634 12.501h5.455zm40.717 0-.012-.012.012-.013q-3.723-3.706-7.448-7.41H251.91l-7.448 7.41.012.013-.012.012c4.001 4.546 8.687 8.682 12.634 12.501h5.455zm40.717 0-.012-.012.012-.013q-3.723-3.706-7.448-7.41H292.63l-7.448 7.41.012.013-.012.012c4.001 4.546 8.687 8.682 12.634 12.501h5.455l12.634-12.501m40.717 0-.012-.012.012-.013q-3.723-3.706-7.448-7.41h-15.826l-7.447 7.41.011.013-.011.012c4 4.546 8.686 8.682 12.634 12.501h5.454l12.634-12.501m40.717 0-.011-.012.011-.013-7.447-7.41h-15.826l-7.448 7.41.012.013-.012.012c4 4.546 8.687 8.682 12.634 12.501h5.455l12.634-12.501m40.717 0-.012-.012.012-.013q-3.723-3.706-7.448-7.41h-15.826l-7.448 7.41.012.013-.012.012c4 4.546 8.687 8.682 12.634 12.501h5.455zm40.717 0-.012-.012.012-.013q-3.723-3.706-7.448-7.41h-15.826l-7.448 7.41.012.013-.012.012c4.001 4.546 8.687 8.682 12.634 12.501h5.455l12.634-12.501m40.717 0-.012-.012.012-.013q-3.723-3.706-7.448-7.41H496.22l-7.447 7.41.011.013-.011.012c4 4.546 8.686 8.682 12.634 12.501h5.454zm40.717 0-.011-.012.011-.013-7.447-7.41h-15.826l-7.448 7.41.012.013-.012.012c4 4.546 8.687 8.682 12.634 12.501h5.455l12.634-12.501m42.555.65-.01-.012.013-.012c-2.158-2.758-6.064-5.442-8.453-8.002l-.027-.001-16.607-.059h-.028l-7.448 7.41.012.014-.012.012c4.001 4.546 8.687 8.682 12.634 12.501h5.455zm44.1 14.044-.004-.016.017-.006c-.944-3.372-3.666-7.575-4.935-10.838l-.025-.011-17.866-6.59-.027-.007s-6.96 3.312-9.925 5.176l.008.016-.014.009c2.903 5.313 7.121 10.725 9.668 15.59l5.231 1.937 17.872-5.259m35.035 30.308.002-.016h.018c.424-3.476.024-7.876.232-11.372l-.019-.02-14.419-13.747-.021-.017s-7.654.342-11.105.935l.002.018-.017.003c.66 6.02 2.677 12.806 2.972 18.29l4.028 3.863zm20.248 41.62.008-.014.016.008c1.717-3.052 3.143-7.039 4.708-10.171l-.01-.026-7.388-17.55-.012-.024s-7.612-3.647-11.026-4.426l-.005.018-.016-.004c-1.705 5.81-2.55 12.986-4.442 18.14l2.169 5.14zm3.577 44.495.011-.012.014.012 7.41-7.448v-.028l-.305-17.157-.002-.027s-5.54-5.71-8.297-7.869l-.012.014-.013-.01c-4.018 4.53-7.564 10.411-11.333 14.405l.025 5.487zm0 40.717.012-.012.014.012 7.41-7.448v-15.826l-7.41-7.448-.014.012-.012-.012c-4.545 4.001-8.682 8.687-12.5 12.634v5.455l12.5 12.634m0 40.717.012-.012.014.012 7.41-7.448v-15.826l-7.41-7.447-.014.011-.012-.011c-4.545 4-8.682 8.686-12.5 12.634v5.454l12.5 12.634m0 40.717.012-.011.014.011 7.41-7.447V347.36l-7.41-7.448-.014.012-.012-.012c-4.545 4-8.682 8.687-12.5 12.634V358l12.5 12.634m0 40.717.012-.012.014.012 7.41-7.448v-15.826l-7.41-7.448-.014.012-.012-.012c-4.545 4.001-8.682 8.687-12.5 12.634v5.455zm0 40.717.012-.012.014.012 7.41-7.448v-15.826l-7.41-7.448-.014.012-.012-.012c-4.545 4.001-8.682 8.687-12.5 12.634v5.455l12.5 12.634m0 40.717.012-.012.014.012 7.41-7.448v-15.826l-7.41-7.447-.014.011-.012-.011c-4.545 4-8.682 8.686-12.5 12.634v5.454l12.5 12.634m0 40.717.012-.011.014.011 7.41-7.447v-15.826l-7.41-7.448-.014.012-.012-.012c-4.545 4-8.682 8.686-12.5 12.634v5.455l12.5 12.634m0 40.717.012-.012.014.012 7.41-7.448V550.95l-7.41-7.448-.014.012-.012-.012c-4.545 4-8.682 8.687-12.5 12.634v5.455zm0 40.717.012-.012.014.012 7.41-7.448v-15.826l-7.41-7.448-.014.012-.012-.012c-4.545 4-8.682 8.687-12.5 12.634v5.455zm0 40.717.012-.012.014.012 7.41-7.448v-15.826l-7.41-7.448-.014.012-.012-.012c-4.545 4.001-8.682 8.687-12.5 12.634v5.455zm0 40.717.012-.012.014.012 7.41-7.448V673.1l-7.41-7.448-.014.012-.012-.012c-4.545 4.001-8.682 8.687-12.5 12.634v5.455l12.5 12.634m0 40.717.012-.012.014.012 7.41-7.448v-15.826l-7.41-7.447-.014.011-.012-.011c-4.545 4-8.682 8.686-12.5 12.634v5.454l12.5 12.634m0 40.717.012-.011.014.011 7.41-7.447v-15.826l-7.41-7.448-.014.012-.012-.012c-4.545 4-8.682 8.687-12.5 12.634v5.455l12.5 12.634m0 40.717.012-.012.014.012 7.41-7.448V795.26l-7.41-7.448-.014.012-.012-.012c-4.545 4.001-8.682 8.687-12.5 12.634v5.455zm0 40.717.012-.012.014.012 7.41-7.448v-15.826l-7.41-7.448-.014.012-.012-.012c-4.545 4.001-8.682 8.687-12.5 12.634v5.455l12.5 12.634m0 40.717.012-.012.014.012 7.41-7.448V876.69l-7.41-7.448-.014.012-.012-.012c-4.545 4.001-8.682 8.687-12.5 12.634v5.455l12.5 12.634m-.532 42.004.013-.01.012.012c2.677-2.258 5.412-6.007 7.912-8.459v-.027l.03-16.05v-.028l-7.41-7.448-.013.012-.012-.012c-4.545 4.001-8.682 8.687-12.5 12.634v5.455zm-13.902 44.72.016-.005.006.017c3.372-.944 7.529-3.689 10.792-4.958l.011-.025 6.517-17.892.007-.027s-3.337-6.967-5.2-9.931l-.016.008-.01-.014c-5.313 2.903-10.674 7.135-15.54 9.682l-1.912 5.24zm-30.151 35.171h.016v.018c3.475.424 7.854 0 11.35.207l.02-.018 13.677-14.486.017-.022s-.363-7.67-.957-11.12l-.018.002-.003-.017c-6.019.66-12.726 2.532-18.2 2.962l-3.833 4.057zm-41.526 20.432.014.01-.008.016c3.052 1.717 7.031 3.117 10.164 4.682l.026-.01 17.519-7.46.025-.012s3.621-7.657 4.4-11.07l-.018-.01.004-.017c-5.81-1.705-12.95-2.48-18.105-4.373l-5.129 2.193-8.893 16.047m-44.476 3.718.012.012-.012.014 7.448 7.41h.028l17.71-.386h.027s6.022-5.549 8.043-8.409l-.014-.01.01-.015c-4.722-3.79-10.982-7.48-15.068-11.15l-5.55.036-12.634 12.501m-40.717 0 .012.012-.012.014q3.723 3.706 7.448 7.41h15.826l7.448-7.41-.012-.014.012-.012c-4-4.545-8.687-8.682-12.634-12.5h-5.455zm-40.717 0 .012.012-.012.014q3.723 3.706 7.448 7.41h15.826l7.448-7.41-.012-.014.012-.012c-4.001-4.545-8.687-8.682-12.634-12.5h-5.455zm-40.717 0 .012.012-.012.014q3.723 3.706 7.448 7.41h15.826l7.448-7.41-.012-.014.012-.012c-4.001-4.545-8.687-8.682-12.634-12.5h-5.455zm-40.717 0 .012.012-.012.014q3.723 3.706 7.448 7.41h15.826l7.447-7.41-.011-.014.011-.012c-4-4.545-8.686-8.682-12.634-12.5h-5.454zm-40.717 0 .011.012-.011.014 7.447 7.41h15.826l7.448-7.41-.012-.014.012-.012c-4-4.545-8.687-8.682-12.634-12.5h-5.455l-12.634 12.5m-40.717 0 .012.012-.012.014q3.723 3.706 7.448 7.41h15.826l7.448-7.41-.012-.014.012-.012c-4-4.545-8.687-8.682-12.634-12.5h-5.455zm-40.717 0 .012.012-.012.014q3.723 3.706 7.448 7.41h15.826l7.448-7.41-.012-.014.012-.012c-4.001-4.545-8.687-8.682-12.634-12.5h-5.455zm-40.717 0 .012.012-.012.014q3.723 3.706 7.448 7.41h15.826l7.447-7.41-.011-.014.011-.012c-4-4.545-8.686-8.682-12.634-12.5h-5.454zm-40.717 0 .011.012-.011.014 7.447 7.41h15.826l7.448-7.41-.012-.014.012-.012c-4-4.545-8.687-8.682-12.634-12.5h-5.455l-12.634 12.5m-40.717 0 .012.012-.012.014q3.723 3.706 7.448 7.41h15.826l7.448-7.41-.012-.014.012-.012c-4.001-4.545-8.687-8.682-12.634-12.5h-5.455zm-40.717 0 .012.012-.012.014q3.723 3.706 7.448 7.41h15.826l7.448-7.41-.012-.014.012-.012c-4.001-4.545-8.687-8.682-12.634-12.5h-5.455zm-44.965-5.436.007.015-.015.01c1.58 3.125 5.09 6.642 6.968 9.597l.027.01 19.123 2.929h.027s6.352-4.626 8.834-7.096l-.012-.014.012-.012c-4-4.546-9.467-9.06-12.913-13.335l-5.514-.845-16.543 8.743m-40.54-22.726.002.016h-.018c.225 3.495 1.53 7.624 1.971 11.097l.022.017 17.077 10.705.025.012s7.45-1.862 10.72-3.115l-.005-.017.016-.01c-1.816-5.777-4.867-11.975-6.423-17.241l-4.734-2.95-18.651 1.48m-28.07-36.7-.005.016-.017-.004c-1.093 3.327-1.682 7.495-2.61 10.872l.014.024 10.766 15.727.017.022s8.097 1.9 11.596 2.04l.002-.019h.017c.61-6.024.019-13.057.873-18.481l-3.159-4.599zM2.19 935.738l-.011.013-.014-.012c-2.377 2.572-4.483 6.863-6.628 9.632l.003.027 3.726 18.69.007.026s6.683 5.078 9.88 6.504l.01-.016.014.007c2.8-5.369 5.137-12.28 7.994-16.97l-1.09-5.47zm-.11-41.27-.012.011-.013-.012q-3.706 3.723-7.41 7.448v15.826l7.41 7.448.013-.012.012.012c4.546-4 8.682-8.687 12.5-12.634V907.1l-12.5-12.634m0-40.717-.012.012-.013-.012q-3.706 3.723-7.41 7.448v15.826l7.41 7.448.013-.012.012.012c4.546-4.001 8.682-8.687 12.5-12.634v-5.455zm0-40.717-.012.012-.013-.012q-3.706 3.723-7.41 7.448v15.826l7.41 7.448.013-.012.012.012c4.546-4.001 8.682-8.687 12.5-12.634v-5.455zm0-40.717-.012.012-.013-.012q-3.706 3.723-7.41 7.448v15.826l7.41 7.448.013-.012.012.012c4.546-4.001 8.682-8.687 12.5-12.634v-5.455l-12.5-12.634m0-40.717-.012.012-.013-.012q-3.706 3.723-7.41 7.448v15.826l7.41 7.447.013-.011.012.011c4.546-4 8.682-8.686 12.5-12.634v-5.454zm0-40.717-.012.011-.013-.011-7.41 7.447v15.826l7.41 7.448.013-.011.012.011c4.546-4 8.682-8.686 12.5-12.634v-5.454zm0-40.717-.012.011-.013-.011q-3.706 3.722-7.41 7.447v15.826l7.41 7.448.013-.012.012.012c4.546-4 8.682-8.687 12.5-12.634v-5.455l-12.5-12.634m0-40.717-.012.012-.013-.012q-3.706 3.723-7.41 7.448v15.826l7.41 7.448.013-.012.012.012c4.546-4.001 8.682-8.687 12.5-12.634v-5.455L2.08 609.44m0-40.717-.012.012-.013-.012q-3.706 3.723-7.41 7.448v15.826l7.41 7.448.013-.012.012.012c4.546-4.001 8.682-8.687 12.5-12.634v-5.455zm0-40.717-.012.012-.013-.012q-3.706 3.723-7.41 7.448v15.826l7.41 7.447.013-.011.012.011c4.546-4 8.682-8.686 12.5-12.634v-5.454zm0-40.717-.012.011-.013-.011q-3.706 3.722-7.41 7.447v15.826l7.41 7.448.013-.012.012.012c4.546-4 8.682-8.686 12.5-12.634v-5.455l-12.5-12.634m0-40.717-.012.012-.013-.012q-3.706 3.723-7.41 7.448v15.826l7.41 7.448.013-.012.012.012c4.546-4.001 8.682-8.687 12.5-12.634V459.2zm0-40.717-.012.012-.013-.012q-3.706 3.723-7.41 7.448v15.826l7.41 7.448.013-.012.012.012c4.546-4.001 8.682-8.687 12.5-12.634v-5.455zm0-40.717-.012.012-.013-.012q-3.706 3.723-7.41 7.448v15.826l7.41 7.447.013-.011.012.011c4.546-4 8.682-8.686 12.5-12.634v-5.454L2.08 365.13m0-40.717-.012.011-.013-.011-7.41 7.447v15.826l7.41 7.448.013-.012.012.012c4.546-4 8.682-8.686 12.5-12.634v-5.455l-12.5-12.634m0-40.717-.012.012-.013-.012q-3.706 3.723-7.41 7.448v15.826l7.41 7.448.013-.012.012.012c4.546-4 8.682-8.687 12.5-12.634v-5.455zm0-40.717-.012.012-.013-.012q-3.706 3.723-7.41 7.448v15.826l7.41 7.448.013-.012.012.012c4.546-4.001 8.682-8.687 12.5-12.634v-5.455l-12.5-12.634m5.27-44.992-.014.007-.01-.016c-3.125 1.58-6.592 5.104-9.547 6.983l-.006.026-2.845 19.134-.002.028s4.658 6.352 7.129 8.835l.013-.012.012.012c4.546-4.001 8.994-9.472 13.27-12.917l.82-5.519zm22.304-40.31-.016.001-.003-.017c-3.488.31-8.03 1.993-11.478 2.604l-.016.023-9.974 16.232-.012.024s1.886 7.462 3.139 10.732l.017-.005.006.016c5.776-1.817 11.929-4.89 17.195-6.446l2.928-4.748zm36.742-28.51-.015-.005.004-.018c-3.327-1.092-7.483-1.659-10.86-2.586l-.024.013-16.327 11.357-.02.018s-1.583 7.864-1.635 11.366l.018.002v.017c6.038.46 13.28-.298 18.704.556l4.584-3.18zm45.35-11.7-.013-.01.012-.015c-2.572-2.376-6.86-4.437-9.628-6.582l-.027.003-18.674 3.802-.027.007s-5.06 6.73-6.487 9.929l.016.009-.007.015c5.369 2.8 12.257 5.063 16.947 7.92l5.466-1.116z"/><path d="M117.15 122.43v10h4.817l3.124 7.5 3.124 7.5h6.511l1.465-3.125 1.466-3.125 1.467 3.125 1.465 3.125h6.511l3.124-7.5 3.124-7.5h4.518v-10h-3.112l-7.043 7.5-7.044 7.5h-6.02l-7.043-7.5-7.044-7.5zm40.716 0v10h4.817l3.124 7.5 3.124 7.5h6.511l1.465-3.125 1.467-3.125 1.467 3.125 1.464 3.125h6.512l3.124-7.5 3.124-7.5h4.518v-10h-3.112l-7.044 7.5-7.043 7.5h-6.02l-7.044-7.5-7.043-7.5zm40.717 0v10h4.817l3.124 7.5 3.124 7.5h6.511l1.465-3.125 1.466-3.125 1.467 3.125 1.465 3.125h6.511l3.124-7.5 3.124-7.5h4.518v-10h-3.112l-7.043 7.5-7.044 7.5h-6.02l-7.044-7.5-7.043-7.5zm40.716 0v10h4.817l3.124 7.5 3.124 7.5h6.511l1.465-3.125 1.467-3.125 1.467 3.125 1.464 3.125h6.512l3.124-7.5 3.124-7.5h4.518v-10h-3.112l-7.044 7.5-7.043 7.5h-6.02l-7.044-7.5-7.043-7.5zm40.717 0v10h4.817l3.124 7.5 3.124 7.5h6.511l1.465-3.125 1.466-3.125 1.467 3.125 1.465 3.125h6.511l3.124-7.5 3.124-7.5h4.518v-10h-3.112l-7.043 7.5-7.044 7.5h-6.02l-7.043-7.5-7.044-7.5zm40.717 0v10h4.816l3.124 7.5 3.124 7.5h6.511l1.465-3.125 1.467-3.125 1.467 3.125 1.465 3.125h6.511l3.124-7.5 3.124-7.5h4.518v-10h-3.112l-7.044 7.5-7.043 7.5h-6.02l-7.044-7.5-7.043-7.5zm40.716 0v10h4.817l3.124 7.5 3.124 7.5h6.511l1.465-3.125 1.467-3.125 1.466 3.125 1.465 3.125h6.511l3.124-7.5 3.124-7.5h4.519v-10h-3.112l-7.044 7.5-7.043 7.5h-6.02l-7.044-7.5-7.044-7.5zm40.717 0v10h4.816l3.124 7.5 3.124 7.5h6.512l1.464-3.125 1.467-3.125 1.467 3.125 1.465 3.125h6.511l3.124-7.5 3.124-7.5h4.518v-10h-3.112l-7.043 7.5-7.044 7.5h-6.02l-7.044-7.5-7.043-7.5zm40.716 0v10h4.817l3.124 7.5 3.124 7.5h6.511l1.465-3.125 1.467-3.125 1.466 3.125 1.465 3.125h6.511l3.124-7.5 3.124-7.5h4.519v-10h-3.112l-7.044 7.5-7.043 7.5h-6.02l-7.044-7.5-7.044-7.5zm40.717 0v10h4.816l3.124 7.5 3.124 7.5h6.511l1.465-3.125 1.467-3.125 1.467 3.125 1.465 3.125h6.511l3.124-7.5 3.124-7.5h4.518v-10h-3.112l-7.044 7.5-7.043 7.5h-6.02l-7.044-7.5-7.043-7.5zm40.717 0v10h4.817l3.124 7.5 3.124 7.5h6.511l1.465-3.125 1.466-3.125 1.467 3.125 1.465 3.125h6.511l3.124-7.5 3.124-7.5h4.518v-10h-3.112l-7.043 7.5-7.044 7.5h-6.02l-7.043-7.5-7.044-7.5zm40.716 0v10h4.817l3.124 7.5 3.124 7.5h6.511l1.465-3.125 1.467-3.125 1.467 3.125 1.464 3.125 3.07.012 2.882.077 3.028-7.34 3.758-7.176 4.381.553.1.018 1.72-9.85-.101-.018-3.472-.452-8.153 6.8-7.134 7.376h-6.02l-7.044-7.5-7.043-7.5h-3.41m42.376 1.294-1.719 9.85.395.069 4.348.768 1.398 8.003.668 7.897 3.136.87 2.391.805 2.372-2.506 1.952-2.594.244 3.443.241 3.443 2.314 1.006 2.296 1.046 6.16-5.297 6.107-5.2 3.798 2.25.087.054 5.342-8.452-.087-.055-2.994-1.808-10.007 3.148-9.343 4.008-2.808-1.084-2.607-.92-4.504-9.182-5.82-8.976-2.965-.517zm41.53 15.456-5.342 8.452.339.214 3.683 2.434-2.055 7.713-2.144 7.836 2.102 1.696 2.175 1.895 2.927-1.546 3.04-1.437-1.133 3.26-1.409 3.01 1.99 2.087 1.925 2.148 7.326-2.922 7.836-2.144 2.592 3.573.06.083 8.18-5.75-.06-.083-1.73-2.462-10.65-1.368-10.256-.088-2.053-2.029-2.024-1.879-.566-10.223-1.474-10.359-2.94-1.897zm32.092 30.603-8.18 5.75.23.328 2.413 3.696-4.913 6.365-4.99 6.41 1.136 2.253 1.098 2.271 3.45.074 3.451.075-2.515 2.084-2.388 2.492.9 2.357 1.023 3.09 7.9.29 8.048 1.007.97 4.308.023.1 9.754-2.2-.022-.1-.662-2.936-9.207-5.385-9.37-4.058-1.025-2.568-1.22-2.752 3.586-9.547 2.675-10.16-1.935-2.917zm17.41 40.75-9.754 2.2.074.393.759 4.35-7.048 4.023-7.158 3.477.207 2.878.101 2.51 3.143 1.426 3.134 1.32-3.125 1.466-3.125 1.465v6.511l7.5 3.124 7.5 3.124v4.518h10v-3.112l-7.5-7.043-7.5-7.044v-3.01l-.029-2.948 7.075-7.308 6.433-8.481-.517-2.965zm2.207 42.786h-10v4.817l-7.5 3.124-7.5 3.124v6.511l3.125 1.465 3.125 1.467-3.125 1.467-3.125 1.464v6.512l7.5 3.124 7.5 3.124v4.518h10v-3.112l-7.5-7.044-7.5-7.043v-6.02l7.5-7.044 7.5-7.044zm0 40.717h-10v4.816l-7.5 3.124-7.5 3.124v6.512l3.125 1.464 3.125 1.467-3.125 1.467-3.125 1.465v6.511l7.5 3.124 7.5 3.124v4.518h10v-3.112l-7.5-7.044-7.5-7.043v-6.02l7.5-7.044 7.5-7.043zm0 40.716h-10v4.817l-7.5 3.124-7.5 3.124v6.511l3.125 1.465 3.125 1.467-3.125 1.466-3.125 1.465v6.511l7.5 3.124 7.5 3.124v4.519h10v-3.113l-7.5-7.043-7.5-7.044v-6.02l7.5-7.043 7.5-7.044zm0 40.717h-10v4.816l-7.5 3.124-7.5 3.124v6.511l3.125 1.465 3.125 1.467-3.125 1.467-3.125 1.465v6.511l7.5 3.124 7.5 3.124v4.518h10v-3.112l-7.5-7.044-7.5-7.043v-6.02l7.5-7.044 7.5-7.043zm0 40.716h-10V421l-7.5 3.124-7.5 3.124v6.511l3.125 1.465 3.125 1.467-3.125 1.466-3.125 1.465v6.511l7.5 3.124 7.5 3.124v4.519h10v-3.113l-7.5-7.043-7.5-7.043v-6.02l7.5-7.044 7.5-7.044v-3.41m0 40.717h-10v4.816l-7.5 3.124-7.5 3.124v6.512l3.125 1.464 3.125 1.467-3.125 1.467-3.125 1.465v6.511l7.5 3.124 7.5 3.124v4.518h10v-3.112l-7.5-7.044-7.5-7.043v-6.02l7.5-7.044 7.5-7.043zm0 40.716h-10v4.817l-7.5 3.124-7.5 3.124v6.511l3.125 1.465 3.125 1.467-3.125 1.467-3.125 1.464v6.512l7.5 3.124 7.5 3.124v4.518h10v-3.112l-7.5-7.044-7.5-7.043v-6.02l7.5-7.044 7.5-7.043zm0 40.717h-10v4.817l-7.5 3.124-7.5 3.124v6.511l3.125 1.465 3.125 1.466-3.125 1.467-3.125 1.465v6.511l7.5 3.124 7.5 3.124v4.518h10v-3.112l-7.5-7.043-7.5-7.044v-6.02l7.5-7.043 7.5-7.044zm0 40.716h-10v4.817l-7.5 3.124-7.5 3.124v6.511l3.125 1.465 3.125 1.467-3.125 1.467-3.125 1.464V609l7.5 3.124 7.5 3.124v4.518h10v-3.112l-7.5-7.044-7.5-7.043v-6.02l7.5-7.044 7.5-7.043zm0 40.717h-10v4.817l-7.5 3.124-7.5 3.124v6.511l3.125 1.465 3.125 1.466-3.125 1.467-3.125 1.465v6.511l7.5 3.124 7.5 3.124v4.518h10v-3.112l-7.5-7.043-7.5-7.044v-6.02l7.5-7.044 7.5-7.043zm0 40.716h-10v4.817l-7.5 3.124-7.5 3.124v6.511l3.125 1.465 3.125 1.467-3.125 1.467-3.125 1.464v6.512l7.5 3.124 7.5 3.124v4.518h10v-3.112l-7.5-7.044-7.5-7.043v-6.02l7.5-7.044 7.5-7.044zm0 40.717h-10v4.816l-7.5 3.124-7.5 3.124v6.512l3.125 1.464 3.125 1.467-3.125 1.467-3.125 1.465v6.511l7.5 3.124 7.5 3.124v4.518h10v-3.112l-7.5-7.044-7.5-7.043v-6.02l7.5-7.044 7.5-7.043zm0 40.716h-10v4.817l-7.5 3.124-7.5 3.124v6.511l3.125 1.465 3.125 1.467-3.125 1.466-3.125 1.465v6.511l7.5 3.124 7.5 3.124v4.519h10v-3.113l-7.5-7.043-7.5-7.044v-6.02l7.5-7.043 7.5-7.044zm0 40.717h-10v4.816l-7.5 3.124-7.5 3.124v6.511l3.125 1.465 3.125 1.467-3.125 1.467-3.125 1.465v6.511l7.5 3.124 7.5 3.124v4.518h10v-3.112l-7.5-7.044-7.5-7.043v-6.02l7.5-7.044 7.5-7.043zm0 40.716h-10v4.817l-7.5 3.124-7.5 3.124v6.511l3.125 1.465 3.125 1.467-3.125 1.466-3.125 1.465v6.511l7.5 3.124 7.5 3.124v4.519h10v-3.113l-7.5-7.043-7.5-7.043v-6.02l7.5-7.044 7.5-7.044zm0 40.717h-10v4.816l-7.5 3.124-7.5 3.124v6.512l3.125 1.464 3.125 1.467-3.125 1.467-3.125 1.465v6.511l7.5 3.124 7.5 3.124v4.518h10v-3.112l-7.5-7.044-7.5-7.043v-6.02l7.5-7.044 7.5-7.043zm0 40.716h-10v4.817l-7.5 3.124-7.5 3.124v6.511l3.125 1.465 3.125 1.467-3.125 1.467-3.125 1.464-.005 3.07-.063 2.883 7.339 3.213 7.221 3.576-.544 4.382-.012.102 9.922 1.232.013-.101.37-2.987-6.845-8.156-7.395-7.135v-6.02l7.5-7.044 7.5-7.043v-3.41m-1.143 41.896-9.922-1.233-.057.397-.76 4.35-7.986 1.4-7.871.675-.87 3.136-.782 2.4 2.507 2.371 2.618 1.961-3.443.243-3.443.242-.982 2.324-1.022 2.307 5.297 6.16 5.221 6.119-2.227 3.811-.054.087 8.452 5.342.055-.087 1.786-3.007-3.171-10.02-4.055-9.363 1.084-2.808.895-2.616 9.158-4.511 8.926-5.832.517-2.965zM684.18 988.77l-8.452-5.342-.214.339-2.412 3.697-7.931-1.756-7.597-2.427-1.681 2.114-1.885 2.184 1.556 2.936 1.292 3.2-3.107-1.284-3-1.4-2.077 2-2.14 1.934 2.725 7.524 2.362 7.664-3.558 2.613-.083.059 5.75 8.18.083-.059 2.844-2.041 1.004-10.42.017-10.24 1.928-1.977 1.95-2.128 10.199-.587 10.606-1.9 1.608-2.544zm-30.453 32.235-5.75-8.18-.328.23-3.682 2.435-6.352-4.892-6.41-4.99-2.24 1.16-2.26 1.12-.074 3.45-.075 3.452-2.075-2.492-2.491-2.388-2.349.925-3.09 1.023-.281 7.923-1.005 8.062-4.304.983-.1.023 2.2 9.754.099-.022 2.936-.662 5.372-9.256 4.048-9.395 2.559-1.049 2.752-1.22 9.523 3.54 10.148 2.653 2.902-1.956zm-40.666 17.598-2.2-9.754-.39.088-4.348.77-4.019-7.022-3.475-7.139-2.877.22-2.881.13-1.054 3.14-1.32 3.14-1.466-3.125-1.465-3.125h-6.511l-3.124 7.5-3.124 7.5h-4.519v10h3.113l7.043-7.5 7.044-7.5h3.01l2.824-.04 7.521 7.031 8.384 6.398 3.444-.624zm-42.772 2.324v-10h-4.817l-3.124-7.5-3.124-7.5h-6.511l-1.465 3.125-1.467 3.125-1.467-3.125-1.464-3.125h-6.512l-3.124 7.5-3.124 7.5h-4.518v10h3.112l7.044-7.5 7.043-7.5h6.02l7.044 7.5 7.043 7.5zm-40.717 0v-10h-4.817l-3.124-7.5-3.124-7.5h-6.511l-1.465 3.125-1.466 3.125-1.467-3.125-1.465-3.125h-6.511l-3.124 7.5-3.124 7.5h-4.518v10h3.112l7.043-7.5 7.044-7.5h6.02l7.043 7.5 7.044 7.5zm-40.717 0v-10h-4.816l-3.124-7.5-3.124-7.5h-6.511l-1.465 3.125-1.467 3.125-1.467-3.125-1.465-3.125h-6.511l-3.124 7.5-3.124 7.5h-4.518v10h3.112l7.044-7.5 7.043-7.5h6.02l7.044 7.5 7.043 7.5zm-40.716 0v-10h-4.817l-3.124-7.5-3.124-7.5h-6.511l-1.465 3.125-1.467 3.125-1.466-3.125-1.465-3.125h-6.511l-3.124 7.5-3.124 7.5h-4.519v10h3.113l7.043-7.5 7.043-7.5h6.02l7.044 7.5 7.044 7.5zm-40.717 0v-10h-4.816l-3.124-7.5-3.124-7.5h-6.511l-1.465 3.125-1.467 3.125-1.467-3.125-1.465-3.125h-6.511l-3.124 7.5-3.124 7.5h-4.518v10h3.112l7.044-7.5 7.043-7.5h6.02l7.044 7.5 7.043 7.5zm-40.716 0v-10h-4.817l-3.124-7.5-3.124-7.5h-6.511l-1.465 3.125-1.467 3.125-1.466-3.125-1.465-3.125h-6.511l-3.124 7.5-3.124 7.5h-4.519v10h3.113l7.043-7.5 7.044-7.5h6.02l7.043 7.5 7.044 7.5zm-40.717 0v-10h-4.816l-3.124-7.5-3.124-7.5h-6.511l-1.465 3.125-1.467 3.125-1.467-3.125-1.465-3.125h-6.511l-3.124 7.5-3.124 7.5h-4.518v10h3.112l7.044-7.5 7.043-7.5h6.02l7.044 7.5 7.043 7.5zm-40.717 0v-10h-4.817l-3.124-7.5-3.124-7.5H267.7l-1.465 3.125-1.466 3.125-1.467-3.125-1.465-3.125h-6.511l-3.124 7.5-3.124 7.5h-4.518v10h3.112l7.043-7.5 7.044-7.5h6.02l7.044 7.5 7.043 7.5h3.41m-40.716 0v-10h-4.817l-3.124-7.5-3.124-7.5h-6.511l-1.465 3.125-1.467 3.125-1.467-3.125-1.464-3.125h-6.512l-3.124 7.5-3.124 7.5h-4.518v10h3.112l7.044-7.5 7.043-7.5h6.02l7.044 7.5 7.043 7.5zm-40.717 0v-10h-4.816l-3.124-7.5-3.124-7.5h-6.512l-1.464 3.125-1.467 3.125-1.467-3.125-1.465-3.125h-6.511l-3.124 7.5-3.124 7.5h-4.518v10h3.112l7.043-7.5 7.044-7.5h6.02l7.044 7.5 7.043 7.5zm-40.716 0v-10h-4.817l-3.124-7.5-3.124-7.5h-6.511l-1.465 3.125-1.467 3.125-1.467-3.125-1.464-3.125h-6.512l-3.124 7.5-3.124 7.5h-4.518v10h3.112l7.044-7.5 7.043-7.5h6.02l7.044 7.5 7.043 7.5zm-40.717 0v-10h-4.817l-2.844-7.533-2.472-7.613-2.876-.215-2.683-.31-1.839 2.92-1.412 2.962-.908-3.33-.905-3.33-2.47-.498-2.463-.54-5.015 6.39-4.995 6.325-4.177-1.432-.095-.037-3.6 9.329.095.037 3.301 1.154 9.218-5.068 8.404-5.823 2.965.517 2.741.356 6.24 8.096 7.196 7.643zm-43.57-6.912 3.6-9.328-.374-.144-4.101-1.636.182-8.121.893-7.914-2.245-1.15-2.834-1.603-2.3 2.273-2.91 1.858.43-3.425 1.046-3.02-2.663-1.871-2.022-1.5-7.073 3.996-6.994 3.899-3.268-2.97-.073-.07-6.983 7.158.074.07 2.577 2.376 10.505-1.03 10.106-1.922 2.336 1.479 2.358 1.442 2.618 9.917 3.933 10.008 2.808 1.084zm-37.688-23.569 6.983-7.158-.287-.28-3.118-3.126 3.507-7.264 3.818-7.046-1.687-2.109-1.546-1.987-3.399.599-3.4.597 1.713-2.997 2.177-2.42-1.739-2.752-1.238-2.196-7.841 1.268-8.103.578-1.814-4.026-.041-.093-9.142 4.05.041.094 1.22 2.752 10.149 3.46 10.015 2.14 1.536 2.298 1.731 2.462-1.636 10.006-.496 10.574 2.311 2.296.287.28m-25.173-36.41 9.142-4.05-.162-.367-1.613-4.11 6.093-5.305 6.37-4.626-.87-3.137-.597-2.449-3.37-.742-3.285-.323 2.826-1.982 2.827-1.98-.387-2.487-.4-3.23-7.674-1.727-7.655-2.655-.087-4.415v-.102h-10v.102l.042 3.382 7.933 6.873 8.364 5.9.517 2.966.612 2.696-5.448 8.691-4.634 9.462 1.294 3.249zm-8.844-43.69h10v-4.817l7.5-3.124 7.5-3.124v-6.511l-3.125-1.465-3.125-1.467 3.125-1.466 3.125-1.465v-6.511l-7.5-3.124-7.5-3.124v-4.519h-10v3.113l7.5 7.043 7.5 7.043v6.02l-7.5 7.044-7.5 7.044zm0-40.717h10v-4.816l7.5-3.124 7.5-3.124v-6.512l-3.125-1.464-3.125-1.467 3.125-1.467 3.125-1.465v-6.511l-7.5-3.124-7.5-3.124v-4.518h-10v3.112l7.5 7.044 7.5 7.043v6.02l-7.5 7.044-7.5 7.043zm0-40.716h10v-4.817l7.5-3.124 7.5-3.124v-6.511l-3.125-1.465-3.125-1.467 3.125-1.467 3.125-1.464v-6.512l-7.5-3.124-7.5-3.124v-4.518h-10v3.112l7.5 7.044 7.5 7.043v6.02l-7.5 7.044-7.5 7.043zm0-40.717h10v-4.816l7.5-3.124 7.5-3.124v-6.512l-3.125-1.464-3.125-1.467 3.125-1.467 3.125-1.465v-6.511l-7.5-3.124-7.5-3.124v-4.518h-10v3.112l7.5 7.043 7.5 7.044v6.02l-7.5 7.044-7.5 7.043zm0-40.716h10v-4.817l7.5-3.124 7.5-3.124v-6.511l-3.125-1.465-3.125-1.467 3.125-1.467 3.125-1.464v-6.512l-7.5-3.124-7.5-3.124v-4.518h-10v3.112l7.5 7.044 7.5 7.043v6.02l-7.5 7.044-7.5 7.044zm0-40.717h10v-4.816l7.5-3.124 7.5-3.124v-6.512l-3.125-1.464-3.125-1.467 3.125-1.467 3.125-1.465v-6.511l-7.5-3.124-7.5-3.124v-4.518h-10v3.112l7.5 7.044 7.5 7.043v6.02l-7.5 7.044-7.5 7.043zm0-40.716h10v-4.817l7.5-3.124 7.5-3.124v-6.511l-3.125-1.465-3.125-1.467 3.125-1.466 3.125-1.465v-6.511l-7.5-3.124-7.5-3.124v-4.519h-10v3.113l7.5 7.043 7.5 7.044v6.02l-7.5 7.043-7.5 7.044zm0-40.717h10v-4.816l7.5-3.124 7.5-3.124v-6.511l-3.125-1.465-3.125-1.467 3.125-1.467 3.125-1.465v-6.511l-7.5-3.124-7.5-3.124v-4.518h-10v3.112l7.5 7.044 7.5 7.043v6.02l-7.5 7.044-7.5 7.043zm0-40.717h10v-4.817l7.5-3.124 7.5-3.124v-6.511l-3.125-1.465-3.125-1.466 3.125-1.467 3.125-1.465v-6.511l-7.5-3.124-7.5-3.124V563.9h-10v3.112l7.5 7.043 7.5 7.044v6.02l-7.5 7.043-7.5 7.044v3.41m0-40.717h10v-4.816l7.5-3.124 7.5-3.124v-6.511l-3.125-1.465-3.125-1.467 3.125-1.467 3.125-1.465v-6.511l-7.5-3.124-7.5-3.124v-4.518h-10v3.112l7.5 7.044 7.5 7.043v6.02l-7.5 7.044-7.5 7.043zm0-40.717h10v-4.817l7.5-3.124 7.5-3.124v-6.511l-3.125-1.465-3.125-1.466 3.125-1.467 3.125-1.465v-6.511l-7.5-3.124-7.5-3.124v-4.518h-10v3.112l7.5 7.043 7.5 7.044v6.02l-7.5 7.043-7.5 7.044zm0-40.717h10v-4.816l7.5-3.124 7.5-3.124v-6.511l-3.125-1.465-3.125-1.467 3.125-1.467 3.125-1.465v-6.511l-7.5-3.124-7.5-3.124v-4.518h-10v3.112l7.5 7.044 7.5 7.043v6.02l-7.5 7.044-7.5 7.043zm0-40.716h10v-4.817l7.5-3.124 7.5-3.124v-6.511l-3.125-1.465-3.125-1.467 3.125-1.466 3.125-1.465v-6.51l-7.5-3.124-7.5-3.124v-4.519h-10v3.112l7.5 7.044 7.5 7.043v6.02l-7.5 7.044-7.5 7.044zm0-40.717h10v-4.816l7.5-3.124 7.5-3.124v-6.512l-3.125-1.464-3.125-1.467 3.125-1.467 3.125-1.465v-6.511l-7.5-3.124-7.5-3.124v-4.518h-10v3.112l7.5 7.043 7.5 7.044v6.02l-7.5 7.044-7.5 7.043zm0-40.716h10V355.5l7.5-3.124 7.5-3.124v-6.511l-3.125-1.465-3.125-1.467 3.125-1.466 3.125-1.465v-6.511l-7.5-3.124-7.5-3.124V319.6h-10v3.112l7.5 7.044 7.5 7.043v6.02l-7.5 7.044-7.5 7.044zm0-40.717h10v-4.816l7.5-3.124 7.5-3.124v-6.511l-3.125-1.465-3.125-1.467 3.125-1.467 3.125-1.465v-6.511l-7.5-3.124-7.5-3.124v-4.518h-10v3.112l7.5 7.044 7.5 7.043v6.02l-7.5 7.044-7.5 7.043zm0-40.717h10v-4.817l7.5-3.124 7.5-3.124v-6.511l-3.125-1.465-3.125-1.466 3.125-1.467 3.125-1.465v-6.511l-7.5-3.124-7.5-3.124v-4.518h-10v3.112l7.5 7.043 7.5 7.044v6.02l-7.5 7.043-7.5 7.044zm0-40.716h10v-4.817l7.526-3.03 7.588-2.287.2-2.878.293-2.685-2.92-1.838-2.92-1.841 3.261-.483 3.33-.906.472-2.474.716-3.176-6.591-4.31-6.349-5.002 1.407-4.185.037-.095-9.329-3.6-.036.095-1.13 3.31 5.093 9.225 5.873 8.416-.476 2.722-.37 2.987-8.061 6.306-7.614 7.135v3.41m6.721-43.607 9.329 3.6.144-.373 1.611-4.11 8.122.181 7.89.882 1.128-2.257 1.602-2.834-2.295-2.313-1.857-2.91 3.424.43 3.424.432 1.446-2.064 1.48-2.037-3.997-7.073-3.924-7.014 2.96-3.278.069-.074-7.33-6.804-.069.075-2.194 2.407 1.056 10.526 2.093 9.927-1.608 2.544-1.42 2.372-9.895 2.63-9.96 3.954-1.086 2.81zm23.226-37.616 7.33 6.803.272-.293 3.117-3.128 7.246 3.488 7.038 3.809 2.096-1.703 2.568-2-1.195-2.966-.597-3.4 2.997 1.713 2.405 2.156 2.752-1.74 2.183-1.26-1.28-7.864-.578-8.103 4.015-1.837.093-.04-4.05-9.143-.094.042-2.752 1.22-3.436 10.194-2.128 10.037-2.283 1.558-2.259 1.593-10.182-1.462-10.548-.467-2.457 2.5zm36.414-25.44 4.05 9.142.367-.163 4.1-1.637 5.296 6.07 5.321 6.138 2.434-.664 2.443-.621.742-3.37.743-3.372 1.557 2.887 1.98 2.827 2.483-.412 3.23-.401 1.91-7.715 2.469-7.659 4.414-.105.102-.001-.124-10-.102.002-3.257.059-6.962 7.979-5.804 8.39-2.72.492-2.937.662-8.677-5.399-9.453-4.609-3.239 1.318z"/><path d="M117.15 139.93v15h4.89l1.446-3.75 1.448-3.75-1.448-3.75-1.447-3.75zm40.717 0v15h4.89l1.446-3.75 1.448-3.75-1.448-3.75-1.447-3.75zm40.717 0v15h4.89l1.446-3.75 1.448-3.75-1.448-3.75-1.447-3.75zm40.717 0v15h4.89l1.446-3.75 1.448-3.75-1.448-3.75-1.447-3.75zm40.717 0v15h4.89l1.446-3.75 1.448-3.75-1.448-3.75-1.447-3.75zm40.717 0v15h4.89l1.446-3.75 1.448-3.75-1.448-3.75-1.447-3.75zm40.717 0v15h4.89l1.446-3.75 1.448-3.75-1.448-3.75-1.447-3.75zm40.717 0v15h4.89l1.446-3.75 1.448-3.75-1.448-3.75-1.447-3.75zm40.717 0v15h4.89l1.446-3.75 1.448-3.75-1.448-3.75-1.447-3.75zm40.717 0v15h4.89l1.446-3.75 1.448-3.75-1.448-3.75-1.447-3.75zm40.717 0v15h4.89l1.446-3.75 1.448-3.75-1.448-3.75-1.447-3.75zm40.717 0v15h4.89l1.446-3.75 1.448-3.75-1.448-3.75-1.447-3.75zm39.369 1.032-2.578 14.775.394.068 3.338.568 2.236-3.34 2.237-3.339-.587-3.976-.587-3.976-4.058-.712zm35.189 13.01-8.013 12.678.339.214 2.824 1.863 3.34-2.235 3.34-2.236.973-3.9.972-3.9-3.437-2.27zm27.124 25.873-12.271 8.624.23.328 1.84 2.84 3.943-.78 3.518-1.38 2.822-2.626 2.396-3.227-2.248-3.452zm14.655 34.536-14.63 3.299-.143-.688.772 4.421 3.741-.12 3.9.973 3.542-1.898 3.592-1.533-.772-4.421zm1.777 38.937h-15v4.889l3.75 1.447 3.75 1.447 3.75-1.447 3.75-1.447zm0 40.717h-15v4.889l3.75 1.447 3.75 1.447 3.75-1.447 3.75-1.447zm0 40.717h-15v4.889l3.75 1.447 3.75 1.447 3.75-1.447 3.75-1.447zm0 40.717h-15v4.889l3.75 1.447 3.75 1.447 3.75-1.447 3.75-1.447zm0 40.717h-15v4.889l3.75 1.447 3.75 1.447 3.75-1.447 3.75-1.447zm0 40.717h-15v4.889l3.75 1.447 3.75 1.447 3.75-1.447 3.75-1.447zm0 40.717h-15v4.889l3.75 1.447 3.75 1.447 3.75-1.447 3.75-1.447zm0 40.717h-15v4.889l3.75 1.447 3.75 1.447 3.75-1.447 3.75-1.447zm0 40.717h-15v4.889l3.75 1.447 3.75 1.447 3.75-1.447 3.75-1.447zm0 40.717h-15v4.889l3.75 1.447 3.75 1.447 3.75-1.447 3.75-1.447zm0 40.717h-15v4.889l3.75 1.447 3.75 1.447 3.75-1.447 3.75-1.447zm0 40.717h-15v4.889l3.75 1.447 3.75 1.447 3.75-1.447 3.75-1.447zm0 40.717h-15v4.889l3.75 1.447 3.75 1.447 3.75-1.447 3.75-1.447zm0 40.717h-15v4.889l3.75 1.447 3.75 1.447 3.75-1.447 3.75-1.447zm0 40.717h-15v4.889l3.75 1.447 3.75 1.447 3.75-1.447 3.75-1.447zm0 40.717h-15v4.889l3.75 1.447 3.75 1.447 3.75-1.447 3.75-1.447zm0 40.717h-15v4.889l3.75 1.447 3.75 1.447 3.75-1.447 3.75-1.447zm-1.007 39.74-14.884-1.85.107-.697-.772 4.422 3.569 1.157 3.34 2.237 3.975-.587 3.892-.23.771-4.42zm-12.751 34.9-12.679-8.013-.214.338-1.842 2.84 2.236 3.34 2.236 3.34 3.9.972 3.9.972 2.249-3.45zm-25.723 27.269-8.625-12.271-.328.23-2.825 1.862.78 3.942 1.394 3.54 2.612 2.8 3.227 2.396 3.437-2.27zm-34.453 14.844-3.3-14.63-.39.087-3.338.567.125 3.767-.974 3.9 1.898 3.542 1.53 3.566 4.058-.71zm-38.923 1.894v-15h-4.89l-1.447 3.75-1.447 3.75 1.447 3.75 1.448 3.75zm-40.716 0v-15h-4.89l-1.447 3.75-1.447 3.75 1.447 3.75 1.448 3.75zm-40.716 0v-15h-4.89l-1.447 3.75-1.447 3.75 1.447 3.75 1.448 3.75zm-40.716 0v-15h-4.89l-1.447 3.75-1.447 3.75 1.447 3.75 1.448 3.75zm-40.716 0v-15h-4.89l-1.447 3.75-1.447 3.75 1.447 3.75 1.448 3.75zm-40.716 0v-15h-4.89l-1.447 3.75-1.447 3.75 1.447 3.75 1.448 3.75zm-40.716 0v-15h-4.89l-1.447 3.75-1.447 3.75 1.447 3.75 1.448 3.75zm-40.716 0v-15h-4.89l-1.447 3.75-1.447 3.75 1.447 3.75 1.448 3.75zm-40.716 0v-15h-4.89l-1.447 3.75-1.447 3.75 1.447 3.75 1.448 3.75zm-40.716 0v-15h-4.89l-1.447 3.75-1.447 3.75 1.447 3.75 1.448 3.75zm-40.716 0v-15h-4.89l-1.447 3.75-1.447 3.75 1.447 3.75 1.448 3.75zm-40.716 0v-15h-4.89l-1.214 3.738-1.122 3.74 1.03 3.76 1.307 3.762zm-37.27-5.736 5.4-13.993-.374-.145-3.153-1.244-2.842 2.842-2.842 2.842-.196 4.014-.196 4.014 3.83 1.525zm-31.784-19.78 10.474-10.737-.287-.28-2.389-2.38-3.733 1.49-3.475 1.758-2.021 3.345-1.764 3.611 2.908 2.913zm-21.378-30.92 13.713-6.076-.162-.366-1.22-3.164-3.686.852-4.014-.196-3.105 2.552-3.187 2.192 1.499 3.84zm-7.34-36.598h15v-4.89l-3.75-1.446-3.75-1.448-3.75 1.448-3.75 1.447zm0-40.717h15v-4.89l-3.75-1.446-3.75-1.448-3.75 1.448-3.75 1.447zm0-40.717h15v-4.89l-3.75-1.446-3.75-1.448-3.75 1.448-3.75 1.447zm0-40.717h15v-4.89l-3.75-1.446-3.75-1.448-3.75 1.448-3.75 1.447zm0-40.717h15v-4.89l-3.75-1.446-3.75-1.448-3.75 1.448-3.75 1.447zm0-40.717h15v-4.89l-3.75-1.446-3.75-1.448-3.75 1.448-3.75 1.447zm0-40.717h15v-4.89l-3.75-1.446-3.75-1.448-3.75 1.448-3.75 1.447zm0-40.717h15v-4.89l-3.75-1.446-3.75-1.448-3.75 1.448-3.75 1.447zm0-40.717h15v-4.89l-3.75-1.446-3.75-1.448-3.75 1.448-3.75 1.447zm0-40.717h15v-4.89l-3.75-1.446-3.75-1.448-3.75 1.448-3.75 1.447zm0-40.717h15v-4.89l-3.75-1.446-3.75-1.448-3.75 1.448-3.75 1.447zm0-40.717h15v-4.89l-3.75-1.446-3.75-1.448-3.75 1.448-3.75 1.447zm0-40.717h15v-4.89l-3.75-1.446-3.75-1.448-3.75 1.448-3.75 1.447zm0-40.717h15v-4.89l-3.75-1.446-3.75-1.448-3.75 1.448-3.75 1.447zm0-40.717h15v-4.89l-3.75-1.446-3.75-1.448-3.75 1.448-3.75 1.447zm0-40.717h15v-4.89l-3.75-1.446-3.75-1.448-3.75 1.448-3.75 1.447zm0-40.717h15v-4.89l-3.75-1.446-3.75-1.448-3.75 1.448-3.75 1.447zm0-40.717h15v-4.89l-3.745-1.214-3.732-1.493-3.767 1.4-3.756 1.308zm5.546-37.306 13.993 5.4.144-.373 1.221-3.164-2.842-2.842-2.842-2.842-4.014-.196-4.015-.196-1.5 3.84zm19.727-32.01L60.9 179.097l.273-.293 2.39-2.38-1.903-3.357-1.49-3.733-3.612-1.764-3.47-1.883-2.909 2.912zm30.674-21.415 6.076 13.713.366-.163 3.154-1.243-.86-3.71.195-4.015-2.551-3.105-2.184-3.163-3.83 1.524z"/><path d="m153.27 139.93-1.447 3.75-1.447 3.75 1.447 3.75 1.447 3.75h4.591v-15zm40.717 0-1.447 3.75-1.447 3.75 1.447 3.75 1.447 3.75h4.591v-15zm40.717 0-1.447 3.75-1.447 3.75 1.447 3.75 1.447 3.75h4.591v-15zm40.717 0-1.447 3.75-1.447 3.75 1.447 3.75 1.447 3.75h4.591v-15zm40.717 0-1.447 3.75-1.447 3.75 1.447 3.75 1.447 3.75h4.591v-15zm40.717 0-1.447 3.75-1.447 3.75 1.447 3.75 1.447 3.75h4.591v-15zm40.717 0-1.447 3.75-1.447 3.75 1.447 3.75 1.447 3.75h4.591v-15zm40.717 0-1.447 3.75-1.447 3.75 1.447 3.75 1.447 3.75h4.591v-15zm40.717 0-1.447 3.75-1.447 3.75 1.447 3.75 1.447 3.75h4.591v-15zm40.717 0-1.447 3.75-1.447 3.75 1.447 3.75 1.447 3.75h4.591v-15zm40.717 0-1.447 3.75-1.447 3.75 1.447 3.75 1.447 3.75h4.591v-15zm39.771.507-1.488 3.617-1.766 3.611 1.117 3.861.288 3.795 3.359.398.1.018 2.579-14.775-.1-.018zm35.745 11.383-3.105 2.551-2.476 2.927-1.216 3.6-.586 3.977 2.917 1.72.086.055 8.013-12.68-.086-.054zm28.281 24.607-3.847 1.162-3.847 1.163-2.07 3.446-2.068 3.446 1.98 2.741.058.084 12.27-8.625-.058-.083zm16.123 33.476-3.9-.038-4-.392-3.227 2.397-3.504 1.333.988 4.378.022.1 14.631-3.3-.022-.1zm2.787 38.824-3.75-1.448-3.75-1.447-3.75 1.447-3.75 1.448v4.59h15zm0 40.717-3.75-1.448-3.75-1.447-3.75 1.447-3.75 1.448v4.59h15zm0 40.717-3.75-1.448-3.75-1.447-3.75 1.447-3.75 1.448v4.59h15zm0 40.717-3.75-1.448-3.75-1.447-3.75 1.447-3.75 1.448v4.59h15zm0 40.717-3.75-1.448-3.75-1.447-3.75 1.447-3.75 1.448v4.59h15zm0 40.717-3.75-1.448-3.75-1.447-3.75 1.447-3.75 1.448v4.59h15zm0 40.717-3.75-1.448-3.75-1.447-3.75 1.447-3.75 1.448v4.59h15zm0 40.717-3.75-1.448-3.75-1.447-3.75 1.447-3.75 1.448v4.59h15zm0 40.717-3.75-1.448-3.75-1.447-3.75 1.447-3.75 1.448v4.59h15zm0 40.717-3.75-1.448-3.75-1.447-3.75 1.447-3.75 1.448v4.59h15zm0 40.717-3.75-1.448-3.75-1.447-3.75 1.447-3.75 1.448v4.59h15zm0 40.717-3.75-1.448-3.75-1.447-3.75 1.447-3.75 1.448v4.59h15zm0 40.717-3.75-1.448-3.75-1.447-3.75 1.447-3.75 1.448v4.59h15zm0 40.717-3.75-1.448-3.75-1.447-3.75 1.447-3.75 1.448v4.59h15zm0 40.717-3.75-1.448-3.75-1.447-3.75 1.447-3.75 1.448v4.59h15zm0 40.717-3.75-1.448-3.75-1.447-3.75 1.447-3.75 1.448v4.59h15zm0 40.717-3.75-1.448-3.75-1.447-3.75 1.447-3.75 1.448v4.59h15zm-.441 39.776-3.638-1.49-3.646-1.398-3.825.748-3.775.29-.554 4.455-.012.101 14.884 1.849.012-.102zm-11.188 35.81-2.552-3.106-2.949-2.487-3.578-1.205-3.977-.586-1.697 2.93-.055.087 12.68 8.013.054-.086zm-24.45 28.417-1.163-3.848-1.163-3.847-3.445-2.069-3.446-2.068-2.726 2-.084.058 8.625 12.271.083-.059zm-33.738 16.406.392-4 .391-4-2.397-3.227-2.397-3.226-3.307.735-.1.022 3.3 14.63.1-.022 4.018-.913m-38.451 2.829 1.447-3.75 1.447-3.75-1.447-3.75-1.447-3.75h-4.591v15zm-40.717 0 1.447-3.75 1.447-3.75-1.447-3.75-1.447-3.75h-4.591v15zm-40.717 0 1.447-3.75 1.447-3.75-1.447-3.75-1.447-3.75h-4.591v15zm-40.717 0 1.447-3.75 1.447-3.75-1.447-3.75-1.447-3.75h-4.591v15zm-40.717 0 1.447-3.75 1.447-3.75-1.447-3.75-1.447-3.75h-4.591v15zm-40.717 0 1.447-3.75 1.447-3.75-1.447-3.75-1.447-3.75h-4.591v15zm-40.717 0 1.447-3.75 1.447-3.75-1.447-3.75-1.447-3.75h-4.591v15zm-40.717 0 1.447-3.75 1.447-3.75-1.447-3.75-1.447-3.75h-4.591v15zm-40.717 0 1.447-3.75 1.447-3.75-1.447-3.75-1.447-3.75h-4.591v15zm-40.717 0 1.447-3.75 1.447-3.75-1.447-3.75-1.447-3.75h-4.591v15zm-40.717 0 1.447-3.75 1.447-3.75-1.447-3.75-1.447-3.75h-4.591v15zm-40.717 0 1.447-3.75 1.447-3.75-1.447-3.75-1.447-3.75h-4.591v15zm-37.866-4.369 2.027-3.27 2.397-3.225-.391-4 .678-3.744-3.212-1.084-.095-.037-5.4 13.993.095.037zm-32.641-18.302 3.372-2.052 3.52-1.94 1.305-3.802 1.733-3.448-2.506-2.26-.073-.07-10.474 10.736.073.072zm-22.755-29.95 4-.391 4-.392 2.7-2.977 2.7-2.977-1.377-3.098-.041-.094L32 966.961l.041.094zm-8.987-36.142 3.8 1.028 3.833 1.212 3.653-1.676 3.703-1.122-.073-3.65v-.103h-15v.103zm-.084-40.436 3.75 1.447 3.75 1.447 3.75-1.447 3.75-1.447v-4.591h-15zm0-40.718 3.75 1.447 3.75 1.447 3.75-1.447 3.75-1.447v-4.591h-15zm0-40.718 3.75 1.447 3.75 1.447 3.75-1.447 3.75-1.447v-4.591h-15zm0-40.718 3.75 1.447 3.75 1.447 3.75-1.447 3.75-1.447v-4.591h-15zm0-40.718 3.75 1.447 3.75 1.447 3.75-1.447 3.75-1.447v-4.591h-15zm0-40.718 3.75 1.447 3.75 1.447 3.75-1.447 3.75-1.447v-4.591h-15zm0-40.718 3.75 1.447 3.75 1.447 3.75-1.447 3.75-1.447v-4.591h-15zm0-40.718 3.75 1.447 3.75 1.447 3.75-1.447 3.75-1.447v-4.591h-15zm0-40.718 3.75 1.447 3.75 1.447 3.75-1.447 3.75-1.447v-4.591h-15zm0-40.718 3.75 1.447 3.75 1.447 3.75-1.447 3.75-1.447v-4.591h-15zm0-40.718 3.75 1.447 3.75 1.447 3.75-1.447 3.75-1.447v-4.591h-15zm0-40.718 3.75 1.447 3.75 1.447 3.75-1.447 3.75-1.447v-4.591h-15zm0-40.718 3.75 1.447 3.75 1.447 3.75-1.447 3.75-1.447v-4.591h-15zm0-40.718 3.75 1.447 3.75 1.447 3.75-1.447 3.75-1.447v-4.591h-15zm0-40.718 3.75 1.447 3.75 1.447 3.75-1.447 3.75-1.447v-4.591h-15zm0-40.718 3.75 1.447 3.75 1.447 3.75-1.447 3.75-1.447v-4.591h-15zm0-40.718 3.75 1.447 3.75 1.447 3.75-1.447 3.75-1.447v-4.591h-15zm4.202-37.894 3.294 2.035 3.226 2.397 4-.392 3.72.671 1.06-3.22.036-.095-13.993-5.4-.036.095zm18.239-32.83 1.94 3.52 2.302 3.099 3.44 1.725 3.802 1.304 2.27-2.499.07-.074-10.993-10.205-.07.074-2.76 3.055m29.662-22.79.392 4 .391 4 2.977 2.7 2.978 2.7 3.087-1.4.093-.042-6.076-13.713-.093.041zm36.085-9.205-1.027 3.814-.843 3.807 1.307 3.679 1.12 3.69 3.93-.094.103-.001-.186-14.998h-.103z"/></g></svg>