<svg xmlns="http://www.w3.org/2000/svg" xmlns:xlink="http://www.w3.org/1999/xlink" viewBox="0 0 161.59 108.56"><title>Movie frame</title><defs><linearGradient id="a"><stop offset="0" style="stop-color:#fff"/><stop offset="1" style="stop-color:#fff;stop-opacity:0"/></linearGradient><linearGradient xlink:href="#a" id="c" x1="471.24" x2="471.24" y1="419.15" y2="406.6" gradientTransform="matrix(.97141 0 0 .93561 13.568 27.085)" gradientUnits="userSpaceOnUse"/><linearGradient xlink:href="#a" id="d" x1="471.24" x2="471.24" y1="419.15" y2="406.6" gradientUnits="userSpaceOnUse"/><linearGradient id="b" x1="537.09" x2="537.09" y1="526.79" y2="639.33" gradientTransform="matrix(1 -.00085 .00129 .66069 -427.11 -221.25)" gradientUnits="userSpaceOnUse"><stop offset="0" style="stop-color:#000"/><stop offset="1" style="stop-color:#000;stop-opacity:0"/></linearGradient></defs><path d="m191.19 47.406-161.38.125.219 108.44 161.38-.156-.22-108.4zM155.53 57.75a6.86 6.86 0 0 1 6.906 6.875l.094 74.625a6.89 6.89 0 0 1-6.906 6.906l-90.964.15a6.89 6.89 0 0 1-6.906-6.906l-.094-74.588a6.92 6.92 0 0 1 6.906-6.937l90.969-.125z" style="color:#000;fill:url(#b)" transform="translate(-29.812 -47.41)"/><g style="opacity:.62019" transform="matrix(.78439 -.001 .00129 1 -357.492 -409.18)"><rect width="19.784" height="8.46" x="461.45" y="415.02" ry=".869" style="opacity:.64602;color:#000;fill:url(#c)"/><rect width="20.366" height="9.042" x="461.06" y="414.63" ry=".929" style="color:#000;fill:url(#d)"/></g><g style="opacity:.62019" transform="matrix(.78439 -.001 .00129 1 -357.472 -391.17)"><rect width="19.784" height="8.46" x="461.45" y="415.02" ry=".869" style="opacity:.64602;color:#000;fill:url(#c)"/><rect width="20.366" height="9.042" x="461.06" y="414.63" ry=".929" style="color:#000;fill:url(#d)"/></g><g style="opacity:.62019" transform="matrix(.78439 -.001 .00129 1 -357.442 -373.166)"><rect width="19.784" height="8.46" x="461.45" y="415.02" ry=".869" style="opacity:.64602;color:#000;fill:url(#c)"/><rect width="20.366" height="9.042" x="461.06" y="414.63" ry=".929" style="color:#000;fill:url(#d)"/></g><g style="opacity:.62019" transform="matrix(.78439 -.001 .00129 1 -357.422 -355.161)"><rect width="19.784" height="8.46" x="461.45" y="415.02" ry=".869" style="opacity:.64602;color:#000;fill:url(#c)"/><rect width="20.366" height="9.042" x="461.06" y="414.63" ry=".929" style="color:#000;fill:url(#d)"/></g><g style="opacity:.62019" transform="matrix(.78439 -.001 .00129 1 -357.402 -337.156)"><rect width="19.784" height="8.46" x="461.45" y="415.02" ry=".869" style="opacity:.64602;color:#000;fill:url(#c)"/><rect width="20.366" height="9.042" x="461.06" y="414.63" ry=".929" style="color:#000;fill:url(#d)"/></g><g style="opacity:.62019" transform="matrix(.78439 -.001 .00129 1 -357.372 -319.15)"><rect width="19.784" height="8.46" x="461.45" y="415.02" ry=".869" style="opacity:.64602;color:#000;fill:url(#c)"/><rect width="20.366" height="9.042" x="461.06" y="414.63" ry=".929" style="color:#000;fill:url(#d)"/></g><g style="opacity:.62019" transform="matrix(.78439 -.001 .00129 1 -224.112 -409.35)"><rect width="19.784" height="8.46" x="461.45" y="415.02" ry=".869" style="opacity:.64602;color:#000;fill:url(#c)"/><rect width="20.366" height="9.042" x="461.06" y="414.63" ry=".929" style="color:#000;fill:url(#d)"/></g><g style="opacity:.62019" transform="matrix(.78439 -.001 .00129 1 -224.082 -391.34)"><rect width="19.784" height="8.46" x="461.45" y="415.02" ry=".869" style="opacity:.64602;color:#000;fill:url(#c)"/><rect width="20.366" height="9.042" x="461.06" y="414.63" ry=".929" style="color:#000;fill:url(#d)"/></g><g style="opacity:.62019" transform="matrix(.78439 -.001 .00129 1 -224.062 -373.338)"><rect width="19.784" height="8.46" x="461.45" y="415.02" ry=".869" style="opacity:.64602;color:#000;fill:url(#c)"/><rect width="20.366" height="9.042" x="461.06" y="414.63" ry=".929" style="color:#000;fill:url(#d)"/></g><g style="opacity:.62019" transform="matrix(.78439 -.001 .00129 1 -224.042 -355.332)"><rect width="19.784" height="8.46" x="461.45" y="415.02" ry=".869" style="opacity:.64602;color:#000;fill:url(#c)"/><rect width="20.366" height="9.042" x="461.06" y="414.63" ry=".929" style="color:#000;fill:url(#d)"/></g><g style="opacity:.62019" transform="matrix(.78439 -.001 .00129 1 -224.012 -337.327)"><rect width="19.784" height="8.46" x="461.45" y="415.02" ry=".869" style="opacity:.64602;color:#000;fill:url(#c)"/><rect width="20.366" height="9.042" x="461.06" y="414.63" ry=".929" style="color:#000;fill:url(#d)"/></g><g style="opacity:.62019" transform="matrix(.78439 -.001 .00129 1 -223.992 -319.322)"><rect width="19.784" height="8.46" x="461.45" y="415.02" ry=".869" style="opacity:.64602;color:#000;fill:url(#c)"/><rect width="20.366" height="9.042" x="461.06" y="414.63" ry=".929" style="color:#000;fill:url(#d)"/></g></svg>