<svg xmlns="http://www.w3.org/2000/svg" viewBox="0 0 791.82 513.52"><defs><linearGradient id="e" x1="184.86" x2="171.73" y1="-22.341" y2="180.7" gradientTransform="translate(-112.36 270.58)scale(1.6612)" gradientUnits="userSpaceOnUse"><stop offset="0" style="stop-color:#fff"/><stop offset="1" style="stop-color:#fff;stop-opacity:0"/></linearGradient><linearGradient id="d" x1="231.32" x2="235.37" y1="374.65" y2="217.07" gradientTransform="matrix(1.6745 0 0 1.6612 -118.7 272.6)" gradientUnits="userSpaceOnUse"><stop offset="0" style="stop-color:#2b0000"/><stop offset="1" style="stop-color:#2b0000;stop-opacity:0"/></linearGradient><linearGradient id="c" x1="273.79" x2="265.71" y1="206.6" y2="581.36" gradientTransform="matrix(1.706 0 0 1.7316 -174.75 -268.94)" gradientUnits="userSpaceOnUse"><stop offset="0" style="stop-color:#000"/><stop offset="1" style="stop-color:#000;stop-opacity:0"/></linearGradient><linearGradient id="b" x1="222.12" x2="235.73" y1="419.2" y2="-11.726" gradientUnits="userSpaceOnUse"><stop offset="0" style="stop-color:#000"/><stop offset="1" style="stop-color:#000;stop-opacity:0"/></linearGradient><linearGradient id="f" x1="296.12" x2="275.91" y1="160.31" y2="467.4" gradientUnits="userSpaceOnUse"><stop offset="0" style="stop-color:navy"/><stop offset="1" style="stop-color:navy;stop-opacity:0"/></linearGradient><linearGradient id="g" x1="184.86" x2="187.54" y1="-22.341" y2="70.029" gradientTransform="matrix(1.6612 0 0 -1.6612 -114.38 808.91)" gradientUnits="userSpaceOnUse"><stop offset="0" style="stop-color:#fff"/><stop offset="1" style="stop-color:#fff;stop-opacity:0"/></linearGradient><filter id="a" color-interpolation-filters="sRGB"><feGaussianBlur stdDeviation="3.793"/></filter></defs><path d="M21.031 16.031c-2.141 0-3.844 1.734-3.844 3.875v284.22a3.82 3.82 0 0 0 3.844 3.844h458.97c2.141 0 3.875-1.703 3.875-3.844V19.906a3.873 3.873 0 0 0-3.875-3.875zm31.312 27.281h395.34c2.141 0 3.844 1.734 3.844 3.875v231.69a3.82 3.82 0 0 1-3.844 3.844H52.343a3.82 3.82 0 0 1-3.844-3.844V47.187c0-2.141 1.703-3.875 3.844-3.875" style="filter:url(#a);fill:url(#b)" transform="matrix(1.633 0 0 1.6557 -17.178 -21.39)"/><path d="M-77.455 295.19c-3.539 0-6.352 2.88-6.352 6.437v472.15c0 3.557 2.813 6.385 6.352 6.385h758.47a6.373 6.373 0 0 0 6.404-6.385v-472.15c0-3.557-2.865-6.437-6.404-6.437zm51.745 45.32h653.32c3.539 0 6.352 2.88 6.352 6.437v384.88c0 3.557-2.813 6.385-6.352 6.385H-25.71c-3.539 0-6.352-2.828-6.352-6.385v-384.88c0-3.557 2.813-6.437 6.352-6.437" style="fill:navy" transform="translate(93.802 -285.21)"/><path d="M-39.382 319.68c-3.362 0-6.03 2.784-6.03 6.23v400.35c0 3.445 2.667 6.229 6.03 6.229h11.957v-386.65c0-3.333 2.624-6.022 5.877-6.022h644.21c3.253 0 5.877 2.689 5.877 6.022v386.65h12.717c3.363 0 6.08-2.784 6.08-6.23V325.91c0-3.445-2.717-6.229-6.08-6.229h-680.64z" style="fill:url(#c)" transform="translate(93.802 -285.21)"/><path d="M680.17 303.86c-69.579.953-139.19.005-208.78.363-185.03.137-370.15-.31-555.14.312-4.308 6.122 1.019 14.61-1.148 21.648.23 150.67-.464 301.34.363 452 7.618 4.073 16.858-1.191 25.117 1.034 248.31-.277 496.62.486 744.92-.411 4.091-7.649-1.242-16.715.991-24.918-.377-149.66.775-299.61-.625-449.1-1.585-1.209-3.797-1.121-5.703-.935zm-709.39 35.353c61.202 1.042 122.6-.015 183.88.363 160.05.305 320.11-.751 480.15.675 12.631 5.912 6.14 21.666 7.586 32.342-.399 122.43.82 244.99-.679 367.33-6.653 12.701-22.98 5.472-34.222 7.319-213.82-.27-427.68.424-641.47-.362-12.557-4.086-7.88-19.528-8.53-29.28.595-123.72-1.183-247.6.943-371.23 2.126-4.825 7.315-7.021 12.349-7.163z" style="fill:url(#d)" transform="translate(93.802 -285.21)"/><path d="M680.24 301.74c-51.067 1.242-102.2-.02-153.3.467-201.53.144-403.15-.321-604.63.312-4.275 6.121 1.014 14.61-1.142 21.648v107.25c13.935 6.156 27.885 12.276 42.1 17.754.684-35.11-1.688-70.502 1.247-105.43 7.387-11.335 22.399-4.266 33.328-6.178 212.11.127 424.26-.405 636.35.363 12.496 4.059 7.886 19.532 8.514 29.331v147.9c14.604-1.003 29.187-2.284 43.762-3.633-.567-69.571 1.113-139.49-.831-208.84-1.549-1.032-3.6-1.065-5.399-.935z" style="fill:url(#e)" transform="translate(93.802 -285.21)"/><path d="M-47.776 322.39c-3.445 0-6.178 2.784-6.178 6.23v400.35c0 3.445 2.733 6.229 6.178 6.229h12.251v-386.65a6.01 6.01 0 0 1 6.022-6.022h660.07a6.01 6.01 0 0 1 6.022 6.022v386.65h13.03a6.223 6.223 0 0 0 6.23-6.23V328.62a6.223 6.223 0 0 0-6.23-6.229h-697.4z" style="fill:url(#f)" transform="translate(93.802 -285.21)"/><path d="M644.75 712.25c-.116 10.282 2.913 23.978-6.875 31-8.67 5.097-19.234 1.132-28.687 2.45-204.64.634-409.3.257-613.94.238-11.082-1.252-24.814 4.075-33.781-5.032-5.897-6.508-2.65-15.962-4.16-23.843-.965-26.942.238-53.897-.028-80.844-11.467 4.58-22.74 9.457-34.062 14.47.087 37.23-.268 74.612.344 111.75-.392 3.498-1.415 7.03-.656 10.468 243.07.722 486.15.042 729.22.396 9.177.074 18.354.187 27.532.198 1.78-67.27.185-134.56.719-201.84-11.864-1.125-23.738-2.15-35.625-3v143.59z" style="fill:url(#g)" transform="translate(93.802 -285.21)"/></svg>